<svg width="19" height="19" viewBox="0 0 19 19" fill="none" xmlns="http://www.w3.org/2000/svg">
<path d="M1.76777 1.06066L1.06066 1.76777C0.474874 2.35356 0.474874 3.3033 1.06066 3.88909L14.4957 17.3241C15.0815 17.9099 16.0312 17.9099 16.617 17.3241L17.3241 16.617C17.9099 16.0312 17.9099 15.0815 17.3241 14.4957L3.88909 1.06066C3.3033 0.474877 2.35355 0.474877 1.76777 1.06066Z" fill="black"/>
<path d="M14.4957 1.06065L1.06066 14.4957C0.474874 15.0815 0.474874 16.0312 1.06066 16.617L1.76777 17.3241C2.35355 17.9099 3.3033 17.9099 3.88909 17.3241L17.3241 3.88907C17.9099 3.30329 17.9099 2.35354 17.3241 1.76775L16.617 1.06065C16.0312 0.47486 15.0815 0.474861 14.4957 1.06065Z" fill="black"/>
</svg>
