<svg width="20" height="20" viewBox="0 0 20 20" fill="none" xmlns="http://www.w3.org/2000/svg">
<path d="M10 20C8.02219 20 6.08879 19.4135 4.4443 18.3147C2.79981 17.2159 1.51809 15.6541 0.761209 13.8268C0.00433284 11.9996 -0.1937 9.98891 0.192152 8.0491C0.578004 6.10929 1.53041 4.32746 2.92894 2.92894C4.32746 1.53041 6.10929 0.578004 8.0491 0.192152C9.98891 -0.1937 11.9996 0.00433284 13.8268 0.761209C15.6541 1.51809 17.2159 2.79981 18.3147 4.4443C19.4135 6.08879 20 8.02219 20 10C19.997 12.6512 18.9424 15.193 17.0677 17.0677C15.193 18.9424 12.6512 19.997 10 20ZM10 1.91425C8.40079 1.91425 6.83749 2.38847 5.5078 3.27694C4.1781 4.16542 3.14173 5.42824 2.52974 6.90572C1.91775 8.3832 1.75762 10.009 2.06961 11.5775C2.3816 13.1459 3.1517 14.5867 4.28251 15.7175C5.41332 16.8483 6.85407 17.6184 8.42255 17.9304C9.99103 18.2424 11.6168 18.0823 13.0943 17.4703C14.5718 16.8583 15.8346 15.8219 16.7231 14.4922C17.6115 13.1625 18.0858 11.5992 18.0858 10C18.0837 7.85615 17.2312 5.80068 15.7153 4.28475C14.1993 2.76881 12.1439 1.91627 10 1.91425V1.91425ZM15.0421 10.4441C15.0426 10.3183 15.0182 10.1936 14.9703 10.0772C14.9224 9.96088 14.8519 9.85517 14.7629 9.76619C14.6739 9.67721 14.5682 9.60673 14.4519 9.55881C14.3355 9.51089 14.2108 9.48648 14.085 9.48699H10.9571V4.89281C10.9571 4.63896 10.8563 4.39551 10.6768 4.21602C10.4973 4.03652 10.2538 3.93569 10 3.93569C9.74616 3.93569 9.50271 4.03652 9.32322 4.21602C9.14372 4.39551 9.04288 4.63896 9.04288 4.89281V10.4441C9.04288 10.698 9.14372 10.9414 9.32322 11.1209C9.50271 11.3004 9.74616 11.4012 10 11.4012H14.085C14.3388 11.4012 14.5823 11.3004 14.7618 11.1209C14.9413 10.9414 15.0421 10.698 15.0421 10.4441Z" fill="#00214D"/>
</svg>
