<svg width="96" height="96" viewBox="0 0 96 96" fill="none" xmlns="http://www.w3.org/2000/svg">
<path d="M48 0C21.5259 0 0 21.5259 0 48C0 74.4741 21.5259 96 48 96C74.4741 96 96 74.4741 96 48C96 21.5259 74.4741 0 48 0ZM48 6C71.2315 6 90 24.7685 90 48C90 71.2315 71.2315 90 48 90C24.7685 90 6 71.2315 6 48C6 24.7685 24.7685 6 48 6ZM49.5 20C38.5467 20 29.3428 27.5608 25.6875 38H21C20.8959 37.9946 20.7916 37.9946 20.6875 38C20.2935 38.0205 19.9074 38.1183 19.5512 38.288C19.195 38.4577 18.8757 38.6959 18.6116 38.989C18.3475 39.2821 18.1437 39.6243 18.0118 39.9962C17.88 40.3681 17.8227 40.7623 17.8432 41.1563C17.8638 41.5503 17.9617 41.9364 18.1314 42.2926C18.3012 42.6487 18.5394 42.9679 18.8326 43.232C19.1257 43.4961 19.468 43.6998 19.8399 43.8316C20.2118 43.9634 20.606 44.0206 21 44H24.25C24.0778 45.3096 24 46.6433 24 48C24 49.3551 24.0782 50.692 24.25 52H21C20.8959 51.9946 20.7916 51.9946 20.6875 52C20.2935 52.0205 19.9074 52.1183 19.5512 52.288C19.195 52.4577 18.8757 52.6959 18.6116 52.989C18.3475 53.2821 18.1437 53.6243 18.0118 53.9962C17.88 54.3681 17.8227 54.7623 17.8432 55.1563C17.8638 55.5503 17.9617 55.9364 18.1314 56.2926C18.3012 56.6487 18.5394 56.9679 18.8326 57.232C19.1257 57.4961 19.468 57.6998 19.8399 57.8316C20.2118 57.9634 20.606 58.0206 21 58H25.6875C29.3362 68.4536 38.537 76 49.5 76C55.2991 76 60.656 73.8259 64.9062 70.2812C65.2547 70.0473 65.5501 69.743 65.7735 69.3877C65.997 69.0325 66.1434 68.6344 66.2034 68.2191C66.2634 67.8037 66.2355 67.3804 66.1217 66.9765C66.0079 66.5726 65.8106 66.1971 65.5426 65.8742C65.2746 65.5512 64.9419 65.2881 64.5659 65.1018C64.1898 64.9155 63.7789 64.8102 63.3597 64.7926C62.9404 64.775 62.5221 64.8456 62.1318 64.9997C61.7415 65.1539 61.3879 65.3882 61.0938 65.6875C57.8251 68.4135 53.8258 70 49.5 70C41.9917 70 35.3712 65.1852 32.125 58H45C45.3975 58.0056 45.7922 57.9322 46.1611 57.7839C46.53 57.6357 46.8658 57.4156 47.1489 57.1365C47.432 56.8573 47.6568 56.5247 47.8103 56.158C47.9637 55.7912 48.0427 55.3976 48.0427 55C48.0427 54.6024 47.9637 54.2088 47.8103 53.842C47.6568 53.4753 47.432 53.1427 47.1489 52.8635C46.8658 52.5844 46.53 52.3643 46.1611 52.2161C45.7922 52.0678 45.3975 51.9944 45 52H30.3125C30.1047 50.7089 30 49.3666 30 48C30 46.6227 30.1015 45.3006 30.3125 44H45C45.3975 44.0056 45.7922 43.9322 46.1611 43.7839C46.53 43.6357 46.8658 43.4156 47.1489 43.1365C47.432 42.8573 47.6568 42.5247 47.8103 42.158C47.9637 41.7912 48.0427 41.3976 48.0427 41C48.0427 40.6024 47.9637 40.2088 47.8103 39.842C47.6568 39.4753 47.432 39.1427 47.1489 38.8635C46.8658 38.5844 46.53 38.3643 46.1611 38.2161C45.7922 38.0678 45.3975 37.9944 45 38H32.125C35.3754 30.8292 42.0008 26 49.5 26C53.8258 26 57.8251 27.5553 61.0938 30.2812C61.3879 30.5806 61.7415 30.8149 62.1318 30.969C62.5221 31.1232 62.9404 31.1937 63.3597 31.1761C63.7789 31.1586 64.1898 31.0532 64.5659 30.8669C64.9419 30.6806 65.2746 30.4175 65.5426 30.0946C65.8106 29.7717 66.0079 29.3961 66.1217 28.9922C66.2355 28.5883 66.2634 28.165 66.2034 27.7497C66.1434 27.3344 65.997 26.9362 65.7735 26.581C65.5501 26.2258 65.2547 25.9214 64.9062 25.6875C60.656 22.1429 55.2991 20 49.5 20Z" fill="black"/>
</svg>
