<svg width="831" height="273" viewBox="0 0 831 273" fill="none" xmlns="http://www.w3.org/2000/svg">
<path d="M155.24 272.875H155.714C157.074 272.697 160.21 272.342 235.582 202.768C258.123 181.943 310.776 133.075 312.67 128.638C313.439 126.863 315.036 123.136 288.591 70.4232C284.272 61.7856 262.382 18.5976 256.998 14.5746C250.432 9.66416 149.147 9.60498 144.828 9.60498C59.7533 9.60498 57.801 13.3322 56.4994 15.7578L54.6063 19.3075C0 122.071 0 125.444 0 127.278C0 129.052 4.51368e-06 132.366 75.0762 202.709C149.975 272.875 153.643 272.875 155.24 272.875ZM7.39521 126.686C9.1109 122.249 18.2218 102.844 60.9366 22.5614L62.3564 19.8399C67.4444 18.1834 94.3629 16.6452 144.828 16.6452C202.037 16.6452 247.059 18.5976 252.857 20.3724C260.489 28.2409 303.677 114.676 305.807 126.094C295.809 138.223 170.918 253.47 155.122 265.243C138.971 253.884 18.1035 140.648 7.39521 126.686Z" fill="#FDE24F"/>
<mask id="mask0" mask-type="alpha" maskUnits="userSpaceOnUse" x="7" y="16" width="299" height="250">
<path d="M305.807 126.035C303.677 114.617 260.489 28.1816 252.857 20.3131C247.059 18.5383 202.037 16.5859 144.828 16.5859C94.363 16.5859 67.4444 18.1833 62.3565 19.7807L60.9366 22.5021C18.2219 102.785 9.11095 122.19 7.39526 126.627C18.1627 140.589 138.971 253.824 155.181 265.183C170.977 253.41 295.809 138.163 305.807 126.035Z" fill="#FF5470"/>
</mask>
<g mask="url(#mask0)">
<path d="M201.577 233.463L192.177 224.056C191.289 223.167 190.105 222.685 188.847 222.685H183.943C184.073 221.093 184.165 219.519 184.165 217.981C184.165 217.389 184.091 216.889 184.073 216.315L196.267 207.722C197.525 206.852 198.265 205.407 198.265 203.889V194.481C198.265 191.889 196.156 189.778 193.565 189.778C190.975 189.778 188.865 191.889 188.865 194.481V201.444L182.167 206.167C179.817 200.481 175.561 197.463 170.103 195.944C170.14 195.481 170.251 195.037 170.251 194.556C170.251 193.685 170.14 192.833 169.992 192C175.635 188.722 179.484 182.685 179.484 175.704C179.484 173.111 177.375 171 174.784 171C172.194 171 170.084 173.111 170.084 175.704C170.084 179.204 168.16 182.241 165.329 183.889C162.85 181.722 159.63 180.37 156.077 180.37C152.469 180.37 149.231 181.759 146.733 183.963C143.828 182.333 141.83 179.259 141.83 175.704C141.83 173.111 139.72 171 137.13 171C134.539 171 132.43 173.111 132.43 175.704C132.43 182.778 136.39 188.889 142.144 192.13C142.015 192.926 141.904 193.722 141.904 194.556C141.904 195.019 141.996 195.444 142.033 195.889C136.501 197.389 132.189 200.407 129.821 206.167L123.104 201.444V194.481C123.104 191.889 120.995 189.778 118.404 189.778C115.814 189.778 113.704 191.889 113.704 194.481V203.889C113.704 205.426 114.445 206.852 115.703 207.722L127.897 216.315C127.878 216.889 127.804 217.389 127.804 217.981C127.804 219.519 127.897 221.093 128.026 222.685H123.104C121.864 222.685 120.662 223.185 119.792 224.056L110.374 233.463C108.542 235.296 108.542 238.278 110.374 240.111C111.299 241.037 113.853 242.685 117.017 240.111L125.029 232.093H129.543C130.099 234.463 130.765 236.815 131.56 239.111L120.384 246.981C119.126 247.87 118.386 249.296 118.386 250.833V260.222C118.386 262.815 120.495 264.926 123.086 264.926C125.676 264.926 127.786 262.815 127.786 260.222V253.259L135.353 247.926C140.497 257.778 147.825 265 155.985 265C164.145 265 171.454 257.778 176.616 247.926L184.184 253.259V260.222C184.184 262.815 186.293 264.926 188.884 264.926C191.474 264.926 193.584 262.815 193.584 260.222V250.815C193.584 249.278 192.844 247.852 191.585 246.963L180.409 239.093C181.205 236.796 181.871 234.444 182.426 232.074H186.922L194.934 240.093C195.86 241.019 198.561 242.741 201.577 240.093C203.538 238.389 203.409 235.296 201.577 233.463Z" fill="#FF5470"/>
</g>
<path d="M93.3999 162C80.0666 162 69.7332 157.467 62.3999 148.4C55.0666 139.2 51.3999 125.333 51.3999 106.8C51.3999 88.6667 55.0666 75 62.3999 65.8C69.8666 56.6 79.7332 52 91.9999 52C99.0666 52 105.267 53.2667 110.6 55.8C116.067 58.3333 120.333 61.9333 123.4 66.6H124.6V15H152V159.6H128.6L126.8 145.8H125.4C122.067 151.133 117.6 155.2 112 158C106.4 160.667 100.2 162 93.3999 162ZM102.2 138.2C117.133 138.2 124.6 128.4 124.6 108.8V105.6C124.6 85.7333 117.133 75.8 102.2 75.8C94.0666 75.8 88.2666 78.2667 84.7999 83.2C81.3332 88 79.5999 95.3333 79.5999 105.2V108.8C79.5999 118.667 81.3332 126.067 84.7999 131C88.2666 135.8 94.0666 138.2 102.2 138.2Z" fill="#FDE24F"/>
<path d="M213.866 162C196.932 162 184.266 157.533 175.866 148.6C167.599 139.667 163.466 125.8 163.466 107C163.466 88.2 167.599 74.3333 175.866 65.4C184.266 56.4667 196.932 52 213.866 52C229.466 52 241.132 56.5333 248.866 65.6C256.599 74.5333 260.466 88.3333 260.466 107V113.4H191.266C191.532 122.733 193.399 129.667 196.866 134.2C200.332 138.6 206.132 140.8 214.266 140.8C219.999 140.8 224.599 139.2 228.066 136C231.666 132.8 233.466 128.267 233.466 122.4H260.466C260.466 135.6 256.199 145.533 247.666 152.2C239.132 158.733 227.866 162 213.866 162ZM232.066 95.2C232.066 80.6667 225.999 73.4 213.866 73.4C206.932 73.4 201.666 75.2 198.066 78.8C194.599 82.4 192.466 87.8667 191.666 95.2H232.066Z" fill="#FDE24F"/>
<path d="M320.998 74.6C312.598 74.6 306.132 72.6667 301.598 68.8C297.065 64.8 294.798 59.4 294.798 52.6V51.2H311.398V52.8C311.398 55.4667 312.198 57.5333 313.798 59C315.532 60.3333 317.865 61 320.798 61C323.598 61 325.798 60.3333 327.398 59C328.998 57.5333 329.798 55.4 329.798 52.6C329.798 46.6 326.465 43.6 319.798 43.6H313.398V29.8H320.198C322.732 29.8 324.732 29.1333 326.198 27.8C327.665 26.3333 328.398 24.1333 328.398 21.2C328.398 16.1333 325.865 13.6 320.798 13.6C318.398 13.6 316.465 14.2667 314.998 15.6C313.532 16.9333 312.798 18.8 312.798 21.2V22.8H296.198V20.4C296.198 14.2667 298.465 9.33333 302.998 5.6C307.665 1.86667 313.532 0 320.598 0C328.065 0 333.998 1.8 338.398 5.4C342.932 8.86666 345.198 13.8667 345.198 20.4C345.198 24 344.265 27 342.398 29.4C340.665 31.8 337.998 33.9333 334.398 35.8V36.6C338.265 38.0667 341.265 40.2667 343.398 43.2C345.532 46 346.598 49.4667 346.598 53.6C346.598 60.1333 344.198 65.2667 339.398 69C334.732 72.7333 328.598 74.6 320.998 74.6Z" fill="#FDE24F"/>
<path d="M396.1 115.2C388.767 115.2 383 113.7 378.8 110.7C374.667 107.633 372.6 103.567 372.6 98.4999L372.7 97.2999H386V97.9999C386.067 100.333 387.1 102.033 389.1 103.1C391.167 104.1 393.667 104.6 396.6 104.6C399.333 104.6 401.667 104.233 403.6 103.5C405.533 102.767 406.5 101.567 406.5 99.8999C406.5 98.0332 405.5 96.6332 403.5 95.6999C401.567 94.7666 398.5 93.8332 394.3 92.8999C389.967 91.8999 386.433 90.8999 383.7 89.8999C380.967 88.8332 378.6 87.1999 376.6 84.9999C374.6 82.7999 373.6 79.8666 373.6 76.1999C373.6 71.0666 375.733 67.1332 380 64.3999C384.333 61.5999 389.9 60.1999 396.7 60.1999C403.033 60.1999 408.267 61.4999 412.4 64.0999C416.533 66.6332 418.6 70.0999 418.6 74.4999L418.5 76.7999H405.2V76.1999C405.2 74.4666 404.367 73.1332 402.7 72.1999C401.1 71.2666 398.933 70.7999 396.2 70.7999C393.467 70.7999 391.3 71.1666 389.7 71.8999C388.1 72.6332 387.3 73.6666 387.3 74.9999C387.3 76.6666 388.2 77.8999 390 78.6999C391.867 79.4999 394.833 80.2999 398.9 81.0999C403.367 82.0999 407 83.0999 409.8 84.0999C412.6 85.0999 415.033 86.7332 417.1 88.9999C419.167 91.2666 420.2 94.3332 420.2 98.1999C420.2 109.533 412.167 115.2 396.1 115.2Z" fill="#FDE24F"/>
<path d="M429.666 61.3999H441.366L442.266 68.2999H442.966C444.633 65.6332 446.866 63.6332 449.666 62.2999C452.466 60.8999 455.566 60.1999 458.966 60.1999C465.633 60.1999 470.8 62.4999 474.466 67.0999C478.133 71.6332 479.966 78.5332 479.966 87.7999C479.966 96.8666 478.1 103.7 474.366 108.3C470.7 112.9 465.8 115.2 459.666 115.2C456.133 115.2 453 114.567 450.266 113.3C447.6 112.033 445.5 110.233 443.966 107.9H443.366V131.3H429.666V61.3999ZM454.566 103.3C458.633 103.3 461.533 102.1 463.266 99.6999C465 97.2332 465.866 93.5332 465.866 88.5999V86.7999C465.866 81.8666 465 78.1999 463.266 75.7999C461.533 73.3332 458.633 72.0999 454.566 72.0999C447.1 72.0999 443.366 76.9999 443.366 86.7999V88.3999C443.366 98.3332 447.1 103.3 454.566 103.3Z" fill="#FDE24F"/>
<path d="M501.899 115.2C497.833 115.2 494.099 114.133 490.699 112C487.299 109.867 485.599 106 485.599 100.4C485.599 93.6666 488.366 88.8999 493.899 86.0999C499.433 83.2332 507.266 81.7999 517.399 81.7999V78.0999C517.399 75.7666 516.866 73.9666 515.799 72.6999C514.799 71.4332 512.866 70.7999 509.999 70.7999C506.933 70.7999 504.733 71.2666 503.399 72.1999C502.133 73.1332 501.499 74.2332 501.499 75.4999V76.9999H488.299C488.233 76.5999 488.199 75.8666 488.199 74.7999C488.199 70.3999 490.133 66.8666 493.999 64.1999C497.933 61.5332 503.133 60.1999 509.599 60.1999C516.799 60.1999 522.166 61.6666 525.699 64.5999C529.299 67.5332 531.099 71.7666 531.099 77.2999V100.5C531.099 101.7 531.433 102.6 532.099 103.2C532.766 103.733 533.599 104 534.599 104H537.399V113.6C535.266 114.667 532.633 115.2 529.499 115.2C526.766 115.2 524.466 114.6 522.599 113.4C520.799 112.2 519.566 110.5 518.899 108.3H518.299C516.366 110.567 514.133 112.3 511.599 113.5C509.133 114.633 505.899 115.2 501.899 115.2ZM506.199 104.4C510.066 104.4 512.899 103.333 514.699 101.2C516.499 98.9999 517.399 96.0999 517.399 92.4999V90.8999C505.466 90.8999 499.499 93.5666 499.499 98.8999C499.499 100.567 500.033 101.9 501.099 102.9C502.232 103.9 503.933 104.4 506.199 104.4Z" fill="#FDE24F"/>
<path d="M558.466 115.2C553.532 115.2 549.999 113.867 547.866 111.2C545.732 108.533 544.666 105.167 544.666 101.1V72.5999H538.366V61.3999H544.966L547.266 46.5999H558.366V61.3999H567.466V72.5999H558.366V99.6999C558.366 102.567 559.799 104 562.666 104H567.466V113.6C566.332 114 564.899 114.367 563.166 114.7C561.499 115.033 559.932 115.2 558.466 115.2ZM555.566 132.3H550.966V119.3H562.466V131.3L556.966 141.3H550.966L555.566 132.3Z" fill="#FDE24F"/>
<path d="M576.566 41.6999H590.266V54.6999H576.566V41.6999ZM576.566 61.3999H590.266V114H576.566V61.3999Z" fill="#FDE24F"/>
<path d="M603.398 41.6999H617.098V54.6999H603.398V41.6999ZM603.398 61.3999H617.098V114H603.398V61.3999Z" fill="#FDE24F"/>
<path d="M658.462 72.5999H650.962V61.3999H658.462V55.3999C658.462 51.2666 659.562 47.8332 661.762 45.0999C663.962 42.2999 667.596 40.8999 672.662 40.8999C674.062 40.8999 675.596 41.0666 677.262 41.3999C678.929 41.7332 680.329 42.0999 681.462 42.4999V52.0999H676.462C673.596 52.0999 672.162 53.5332 672.162 56.3999V61.3999H681.462V72.5999H672.162V114H658.462V72.5999Z" fill="#FDE24F"/>
<path d="M701.563 115.2C697.497 115.2 693.763 114.133 690.363 112C686.963 109.867 685.263 106 685.263 100.4C685.263 93.6666 688.03 88.8999 693.563 86.0999C699.097 83.2332 706.93 81.7999 717.063 81.7999V78.0999C717.063 75.7666 716.53 73.9666 715.463 72.6999C714.463 71.4332 712.53 70.7999 709.663 70.7999C706.597 70.7999 704.397 71.2666 703.063 72.1999C701.797 73.1332 701.163 74.2332 701.163 75.4999V76.9999H687.963C687.897 76.5999 687.863 75.8666 687.863 74.7999C687.863 70.3999 689.797 66.8666 693.663 64.1999C697.597 61.5332 702.797 60.1999 709.263 60.1999C716.463 60.1999 721.83 61.6666 725.363 64.5999C728.963 67.5332 730.763 71.7666 730.763 77.2999V100.5C730.763 101.7 731.097 102.6 731.763 103.2C732.43 103.733 733.263 104 734.263 104H737.063V113.6C734.93 114.667 732.297 115.2 729.163 115.2C726.43 115.2 724.13 114.6 722.263 113.4C720.463 112.2 719.23 110.5 718.563 108.3H717.963C716.03 110.567 713.797 112.3 711.263 113.5C708.797 114.633 705.563 115.2 701.563 115.2ZM705.863 104.4C709.73 104.4 712.563 103.333 714.363 101.2C716.163 98.9999 717.063 96.0999 717.063 92.4999V90.8999C705.13 90.8999 699.163 93.5666 699.163 98.8999C699.163 100.567 699.697 101.9 700.763 102.9C701.897 103.9 703.597 104.4 705.863 104.4ZM709.763 56.3999C706.097 56.3999 703.063 55.7332 700.663 54.3999C698.263 53.0666 696.497 51.3666 695.363 49.2999C694.23 47.1666 693.663 44.9666 693.663 42.6999H702.663C702.863 43.8999 703.563 44.9999 704.763 45.9999C705.963 46.9999 707.63 47.4999 709.763 47.4999C711.897 47.4999 713.597 46.9999 714.863 45.9999C716.13 44.9999 716.83 43.8999 716.963 42.6999H725.963C725.963 44.9666 725.397 47.1666 724.263 49.2999C723.13 51.3666 721.33 53.0666 718.863 54.3999C716.463 55.7332 713.43 56.3999 709.763 56.3999Z" fill="#FDE24F"/>
<path d="M744.03 61.3999H755.73L756.83 69.8999H757.53C758.663 66.8999 760.13 64.5332 761.93 62.7999C763.73 61.0666 766.096 60.1999 769.03 60.1999C770.963 60.1999 772.696 60.4999 774.23 61.0999V73.8999H770.43C765.963 73.8999 762.73 75.1332 760.73 77.5999C758.73 79.9999 757.73 83.6666 757.73 88.5999V114H744.03V61.3999Z" fill="#FDE24F"/>
<path d="M793.997 115.2C789.93 115.2 786.197 114.133 782.797 112C779.397 109.867 777.697 106 777.697 100.4C777.697 93.6666 780.463 88.8999 785.997 86.0999C791.53 83.2332 799.363 81.7999 809.497 81.7999V78.0999C809.497 75.7666 808.963 73.9666 807.897 72.6999C806.897 71.4332 804.963 70.7999 802.097 70.7999C799.03 70.7999 796.83 71.2666 795.497 72.1999C794.23 73.1332 793.597 74.2332 793.597 75.4999V76.9999H780.397C780.33 76.5999 780.297 75.8666 780.297 74.7999C780.297 70.3999 782.23 66.8666 786.097 64.1999C790.03 61.5332 795.23 60.1999 801.697 60.1999C808.897 60.1999 814.263 61.6666 817.797 64.5999C821.397 67.5332 823.197 71.7666 823.197 77.2999V100.5C823.197 101.7 823.53 102.6 824.197 103.2C824.863 103.733 825.697 104 826.697 104H829.497V113.6C827.363 114.667 824.73 115.2 821.597 115.2C818.863 115.2 816.563 114.6 814.697 113.4C812.897 112.2 811.663 110.5 810.997 108.3H810.397C808.463 110.567 806.23 112.3 803.697 113.5C801.23 114.633 797.997 115.2 793.997 115.2ZM798.297 104.4C802.163 104.4 804.997 103.333 806.797 101.2C808.597 98.9999 809.497 96.0999 809.497 92.4999V90.8999C797.563 90.8999 791.597 93.5666 791.597 98.8999C791.597 100.567 792.13 101.9 793.197 102.9C794.33 103.9 796.03 104.4 798.297 104.4ZM802.197 56.3999C798.53 56.3999 795.497 55.7332 793.097 54.3999C790.697 53.0666 788.93 51.3666 787.797 49.2999C786.663 47.1666 786.097 44.9666 786.097 42.6999H795.097C795.297 43.8999 795.997 44.9999 797.197 45.9999C798.397 46.9999 800.063 47.4999 802.197 47.4999C804.33 47.4999 806.03 46.9999 807.297 45.9999C808.563 44.9999 809.263 43.8999 809.397 42.6999H818.397C818.397 44.9666 817.83 47.1666 816.697 49.2999C815.563 51.3666 813.763 53.0666 811.297 54.3999C808.897 55.7332 805.863 56.3999 802.197 56.3999Z" fill="#FDE24F"/>
<path d="M392.7 225.2C386.033 225.2 380.867 222.933 377.2 218.4C373.533 213.8 371.7 206.867 371.7 197.6C371.7 188.533 373.533 181.7 377.2 177.1C380.933 172.5 385.867 170.2 392 170.2C395.533 170.2 398.633 170.833 401.3 172.1C404.033 173.367 406.167 175.167 407.7 177.5H408.3V151.7H422V224H410.3L409.4 217.1H408.7C407.033 219.767 404.8 221.8 402 223.2C399.2 224.533 396.1 225.2 392.7 225.2ZM397.1 213.3C404.567 213.3 408.3 208.4 408.3 198.6V197C408.3 187.067 404.567 182.1 397.1 182.1C393.033 182.1 390.133 183.333 388.4 185.8C386.667 188.2 385.8 191.867 385.8 196.8V198.6C385.8 203.533 386.667 207.233 388.4 209.7C390.133 212.1 393.033 213.3 397.1 213.3Z" fill="#FDE24F"/>
<path d="M447.333 225.2C443.266 225.2 439.533 224.133 436.133 222C432.733 219.867 431.033 216 431.033 210.4C431.033 203.667 433.799 198.9 439.333 196.1C444.866 193.233 452.699 191.8 462.833 191.8V188.1C462.833 185.767 462.299 183.967 461.233 182.7C460.233 181.433 458.299 180.8 455.433 180.8C452.366 180.8 450.166 181.267 448.833 182.2C447.566 183.133 446.933 184.233 446.933 185.5V187H433.733C433.666 186.6 433.633 185.867 433.633 184.8C433.633 180.4 435.566 176.867 439.433 174.2C443.366 171.533 448.566 170.2 455.033 170.2C462.233 170.2 467.599 171.667 471.133 174.6C474.733 177.533 476.533 181.767 476.533 187.3V210.5C476.533 211.7 476.866 212.6 477.533 213.2C478.199 213.733 479.033 214 480.033 214H482.833V223.6C480.699 224.667 478.066 225.2 474.933 225.2C472.199 225.2 469.899 224.6 468.033 223.4C466.233 222.2 464.999 220.5 464.333 218.3H463.733C461.799 220.567 459.566 222.3 457.033 223.5C454.566 224.633 451.333 225.2 447.333 225.2ZM451.633 214.4C455.499 214.4 458.333 213.333 460.133 211.2C461.933 209 462.833 206.1 462.833 202.5V200.9C450.899 200.9 444.933 203.567 444.933 208.9C444.933 210.567 445.466 211.9 446.533 212.9C447.666 213.9 449.366 214.4 451.633 214.4ZM455.533 166.4C451.866 166.4 448.833 165.733 446.433 164.4C444.033 163.067 442.266 161.367 441.133 159.3C439.999 157.167 439.433 154.967 439.433 152.7H448.433C448.633 153.9 449.333 155 450.533 156C451.733 157 453.399 157.5 455.533 157.5C457.666 157.5 459.366 157 460.633 156C461.899 155 462.599 153.9 462.733 152.7H471.733C471.733 154.967 471.166 157.167 470.033 159.3C468.899 161.367 467.099 163.067 464.633 164.4C462.233 165.733 459.199 166.4 455.533 166.4Z" fill="#FDE24F"/>
<path d="M506.899 225.2C501.499 225.2 497.233 223.733 494.099 220.8C491.033 217.867 489.499 213.167 489.499 206.7V171.4H503.199V203.8C503.199 207.067 503.966 209.433 505.499 210.9C507.033 212.367 509.299 213.1 512.299 213.1C515.366 213.1 517.899 212.033 519.899 209.9C521.966 207.7 522.999 205 522.999 201.8V171.4H536.699V224H524.999L523.999 217.1H523.299C519.033 222.5 513.566 225.2 506.899 225.2Z" fill="#FDE24F"/>
<path d="M549.932 171.4H561.632L562.632 178.3H563.332C567.599 172.9 573.065 170.2 579.732 170.2C585.132 170.2 589.365 171.667 592.432 174.6C595.565 177.533 597.132 182.233 597.132 188.7V224H583.432V191.6C583.432 188.333 582.665 185.967 581.132 184.5C579.599 183.033 577.332 182.3 574.332 182.3C571.265 182.3 568.699 183.4 566.632 185.6C564.632 187.733 563.632 190.4 563.632 193.6V224H549.932V171.4Z" fill="#FDE24F"/>
<path d="M622.165 225.2C618.098 225.2 614.365 224.133 610.965 222C607.565 219.867 605.865 216 605.865 210.4C605.865 203.667 608.631 198.9 614.165 196.1C619.698 193.233 627.531 191.8 637.665 191.8V188.1C637.665 185.767 637.131 183.967 636.065 182.7C635.065 181.433 633.131 180.8 630.265 180.8C627.198 180.8 624.998 181.267 623.665 182.2C622.398 183.133 621.765 184.233 621.765 185.5V187H608.565C608.498 186.6 608.465 185.867 608.465 184.8C608.465 180.4 610.398 176.867 614.265 174.2C618.198 171.533 623.398 170.2 629.865 170.2C637.065 170.2 642.431 171.667 645.965 174.6C649.565 177.533 651.365 181.767 651.365 187.3V210.5C651.365 211.7 651.698 212.6 652.365 213.2C653.031 213.733 653.865 214 654.865 214H657.665V223.6C655.531 224.667 652.898 225.2 649.765 225.2C647.031 225.2 644.731 224.6 642.865 223.4C641.065 222.2 639.831 220.5 639.165 218.3H638.565C636.631 220.567 634.398 222.3 631.865 223.5C629.398 224.633 626.165 225.2 622.165 225.2ZM626.465 214.4C630.331 214.4 633.165 213.333 634.965 211.2C636.765 209 637.665 206.1 637.665 202.5V200.9C625.731 200.9 619.765 203.567 619.765 208.9C619.765 210.567 620.298 211.9 621.365 212.9C622.498 213.9 624.198 214.4 626.465 214.4ZM630.365 166.4C626.698 166.4 623.665 165.733 621.265 164.4C618.865 163.067 617.098 161.367 615.965 159.3C614.831 157.167 614.265 154.967 614.265 152.7H623.265C623.465 153.9 624.165 155 625.365 156C626.565 157 628.231 157.5 630.365 157.5C632.498 157.5 634.198 157 635.465 156C636.731 155 637.431 153.9 637.565 152.7H646.565C646.565 154.967 645.998 157.167 644.865 159.3C643.731 161.367 641.931 163.067 639.465 164.4C637.065 165.733 634.031 166.4 630.365 166.4Z" fill="#FDE24F"/>
<path d="M678.731 225.2C673.798 225.2 670.265 223.867 668.131 221.2C665.998 218.533 664.931 215.167 664.931 211.1V182.6H658.631V171.4H665.231L667.531 156.6H678.631V171.4H687.731V182.6H678.631V209.7C678.631 212.567 680.065 214 682.931 214H687.731V223.6C686.598 224 685.165 224.367 683.431 224.7C681.765 225.033 680.198 225.2 678.731 225.2Z" fill="#FDE24F"/>
<path d="M720.332 225.2C711.332 225.2 704.632 222.967 700.232 218.5C695.832 214.033 693.632 207.1 693.632 197.7C693.632 188.3 695.832 181.367 700.232 176.9C704.632 172.433 711.332 170.2 720.332 170.2C729.332 170.2 736.032 172.433 740.432 176.9C744.899 181.367 747.132 188.3 747.132 197.7C747.132 207.1 744.899 214.033 740.432 218.5C736.032 222.967 729.332 225.2 720.332 225.2ZM720.332 214C724.799 214 728.032 212.733 730.032 210.2C732.032 207.6 733.032 203.7 733.032 198.5V196.9C733.032 191.7 732.032 187.833 730.032 185.3C728.032 182.7 724.799 181.4 720.332 181.4C715.865 181.4 712.632 182.7 710.632 185.3C708.699 187.833 707.732 191.7 707.732 196.9V198.5C707.732 203.7 708.699 207.6 710.632 210.2C712.632 212.733 715.865 214 720.332 214Z" fill="#FDE24F"/>
<path d="M757.065 171.4H768.765L769.865 179.9H770.565C771.698 176.9 773.165 174.533 774.965 172.8C776.765 171.067 779.131 170.2 782.065 170.2C783.998 170.2 785.731 170.5 787.265 171.1V183.9H783.465C778.998 183.9 775.765 185.133 773.765 187.6C771.765 190 770.765 193.667 770.765 198.6V224H757.065V171.4Z" fill="#FDE24F"/>
<path d="M794.832 151.7H808.532V164.7H794.832V151.7ZM794.832 171.4H808.532V224H794.832V171.4Z" fill="#FDE24F"/>
</svg>
