<svg width="347" height="273" viewBox="0 0 347 273" fill="none" xmlns="http://www.w3.org/2000/svg">
<path d="M305.807 126.035C303.677 114.617 260.489 28.1817 252.857 20.3132C247.059 18.5384 202.037 16.5861 144.828 16.5861C94.363 16.5861 67.4444 18.1834 62.3565 19.7808L60.9366 22.5022C18.2219 102.785 9.11095 122.19 7.39526 126.627C18.1627 140.589 138.971 253.825 155.181 265.184C170.977 253.41 295.809 138.163 305.807 126.035ZM35.5562 123.491C35.5562 121.894 35.5562 119.468 77.6202 46.5811L79.0993 44.0371C80.4008 41.789 81.8207 39.245 147.549 39.245C155.832 39.245 228.897 39.3633 234.044 42.913C238.244 45.8119 253.863 74.1504 258.596 82.7288C279.184 120.533 277.942 123.195 277.113 124.97C275.694 127.988 243.983 155.32 217.656 177.743C159.618 227.083 157.252 227.32 156.009 227.498H155.595C154.116 227.498 151.336 227.498 93.5939 177.624C35.5562 127.633 35.5562 125.444 35.5562 123.491Z" fill="#FDE24F"/>
<path d="M72 34.6049L24 122.605L157 242.605L291 129.605L241 27.6049L72 34.6049Z" fill="#FDE24F"/>
<path d="M155.24 272.875H155.714C157.074 272.697 160.21 272.342 235.582 202.768C258.123 181.943 310.776 133.075 312.67 128.638C313.439 126.863 315.036 123.136 288.591 70.4232C284.272 61.7856 262.382 18.5976 256.998 14.5746C250.432 9.66416 149.147 9.60498 144.828 9.60498C59.7533 9.60498 57.801 13.3322 56.4994 15.7578L54.6063 19.3075C0 122.071 0 125.444 0 127.278C0 129.052 4.51368e-06 132.366 75.0762 202.709C149.975 272.875 153.643 272.875 155.24 272.875ZM7.39521 126.686C9.1109 122.249 18.2218 102.844 60.9366 22.5614L62.3564 19.8399C67.4444 18.1834 94.3629 16.6452 144.828 16.6452C202.037 16.6452 247.059 18.5976 252.857 20.3724C260.489 28.2409 303.677 114.676 305.807 126.094C295.809 138.223 170.918 253.47 155.122 265.243C138.971 253.884 18.1035 140.648 7.39521 126.686Z" fill="#00214D"/>
<path d="M93.3999 162C80.0666 162 69.7332 157.467 62.3999 148.4C55.0666 139.2 51.3999 125.333 51.3999 106.8C51.3999 88.6667 55.0666 75 62.3999 65.8C69.8666 56.6 79.7332 52 91.9999 52C99.0666 52 105.267 53.2667 110.6 55.8C116.067 58.3333 120.333 61.9333 123.4 66.6H124.6V15H152V159.6H128.6L126.8 145.8H125.4C122.067 151.133 117.6 155.2 112 158C106.4 160.667 100.2 162 93.3999 162ZM102.2 138.2C117.133 138.2 124.6 128.4 124.6 108.8V105.6C124.6 85.7333 117.133 75.8 102.2 75.8C94.0666 75.8 88.2666 78.2667 84.7999 83.2C81.3332 88 79.5999 95.3333 79.5999 105.2V108.8C79.5999 118.667 81.3332 126.067 84.7999 131C88.2666 135.8 94.0666 138.2 102.2 138.2Z" fill="#00214D"/>
<path d="M213.866 162C196.932 162 184.266 157.533 175.866 148.6C167.599 139.667 163.466 125.8 163.466 107C163.466 88.2 167.599 74.3333 175.866 65.4C184.266 56.4667 196.932 52 213.866 52C229.466 52 241.132 56.5333 248.866 65.6C256.599 74.5333 260.466 88.3333 260.466 107V113.4H191.266C191.532 122.733 193.399 129.667 196.866 134.2C200.332 138.6 206.132 140.8 214.266 140.8C219.999 140.8 224.599 139.2 228.066 136C231.666 132.8 233.466 128.267 233.466 122.4H260.466C260.466 135.6 256.199 145.533 247.666 152.2C239.132 158.733 227.866 162 213.866 162ZM232.066 95.2C232.066 80.6667 225.999 73.4 213.866 73.4C206.932 73.4 201.666 75.2 198.066 78.8C194.599 82.4 192.466 87.8667 191.666 95.2H232.066Z" fill="#00214D"/>
<path d="M320.998 74.6C312.598 74.6 306.132 72.6667 301.598 68.8C297.065 64.8 294.798 59.4 294.798 52.6V51.2H311.398V52.8C311.398 55.4667 312.198 57.5333 313.798 59C315.532 60.3333 317.865 61 320.798 61C323.598 61 325.798 60.3333 327.398 59C328.998 57.5333 329.798 55.4 329.798 52.6C329.798 46.6 326.465 43.6 319.798 43.6H313.398V29.8H320.198C322.732 29.8 324.732 29.1333 326.198 27.8C327.665 26.3333 328.398 24.1333 328.398 21.2C328.398 16.1333 325.865 13.6 320.798 13.6C318.398 13.6 316.465 14.2667 314.998 15.6C313.532 16.9333 312.798 18.8 312.798 21.2V22.8H296.198V20.4C296.198 14.2667 298.465 9.33333 302.998 5.6C307.665 1.86667 313.532 0 320.598 0C328.065 0 333.998 1.8 338.398 5.4C342.932 8.86666 345.198 13.8667 345.198 20.4C345.198 24 344.265 27 342.398 29.4C340.665 31.8 337.998 33.9333 334.398 35.8V36.6C338.265 38.0667 341.265 40.2667 343.398 43.2C345.532 46 346.598 49.4667 346.598 53.6C346.598 60.1333 344.198 65.2667 339.398 69C334.732 72.7333 328.598 74.6 320.998 74.6Z" fill="#00214D"/>
</svg>
