<svg width="28" height="24" viewBox="0 0 28 24" fill="none" xmlns="http://www.w3.org/2000/svg">
<path d="M27.8586 13.9697C27.6768 13.5858 26.9495 13.6464 26.6162 13.6464C26.4546 13.6464 26.2929 13.6666 26.1313 13.6767C25.3839 13.6969 24.6364 13.9091 23.899 14.0505C23.0606 14.1818 22.2121 14.2626 21.3637 14.1919C20.8081 14.1515 20.1616 14.0606 19.6667 13.7878C19.1616 13.4949 19.101 12.8787 19.0404 12.3636C18.9596 11.7272 18.798 11.0404 18.4647 10.4646C18.3031 10.0404 18.0505 9.56562 17.7071 9.23228C17.5455 9.04036 17.3637 8.84845 17.1818 8.68683C16.8788 8.404 16.5354 8.16157 16.1515 7.99996C15.3637 7.67673 14.4748 7.70703 13.6566 7.92926C12.7576 8.18178 11.9798 8.80804 11.0404 8.89895C10.5657 8.94946 10.0808 8.88885 9.62628 8.77774C9.23234 8.67673 8.85861 8.49491 8.47477 8.3636C8.47477 8.33329 8.46467 8.30299 8.46467 8.27269C8.46467 8.06056 8.53537 7.87875 8.57578 7.67673C8.61618 7.43431 8.52527 7.16158 8.25255 7.13127C7.96972 7.10097 7.68689 7.3838 7.53537 7.59592C7.45457 7.70703 7.38386 7.83834 7.35356 7.96966C7.32325 8.12117 7.38386 8.28279 7.37376 8.43431C7.17174 8.48481 6.96972 8.53531 6.7677 8.57572C6.39396 8.66663 6.02022 8.74744 5.68689 8.93936C5.31315 9.16158 4.96972 9.4242 4.60608 9.66662C4.25255 9.90905 3.87881 10.1414 3.53537 10.404C3.49497 10.4343 3.49497 10.505 3.51517 10.5454C3.51517 10.5555 3.52527 10.5656 3.52527 10.5656C3.50507 10.5858 3.48487 10.6262 3.50507 10.6464C3.7677 11.0202 3.95962 11.4242 4.44446 11.5656C4.58588 11.606 4.7576 11.6161 4.91921 11.5757C5.05053 11.8181 5.32325 11.9495 5.61618 11.9899C5.92931 12.0303 6.25255 11.9596 6.56568 12.0303C6.8384 12.0909 7.08083 12.2323 7.32325 12.3939C7.63638 12.5959 7.94952 12.808 8.27275 12.9798C8.58588 13.4343 8.8081 13.9596 8.8182 14.505C8.7576 14.606 8.68689 14.6969 8.60608 14.7777C8.20204 15.2222 7.72729 15.1616 7.19194 15.1919C7.13133 15.1919 7.12123 15.2828 7.18184 15.2929C7.37376 15.3434 7.58588 15.3838 7.8081 15.3838C7.52527 15.4848 7.23234 15.5858 6.94952 15.707C6.90911 15.7272 6.92931 15.7878 6.96972 15.7878C7.25255 15.7777 7.53537 15.7272 7.8182 15.6464C7.7475 15.6969 7.67679 15.7474 7.60608 15.7979C7.53537 15.8484 7.59598 15.9495 7.67679 15.9091C7.85861 15.8282 8.03032 15.7373 8.19194 15.6464C8.16164 15.6868 8.12123 15.7272 8.09093 15.7575C8.08083 15.7676 8.08083 15.7676 8.07073 15.7777C8.05053 15.7878 8.02022 15.808 8.00002 15.8181C7.97982 15.8282 7.95962 15.8383 7.94952 15.8484C7.7879 15.9394 7.63639 16.0303 7.49497 16.1515C7.43437 16.1919 7.37376 16.2222 7.30305 16.2525C7.12123 16.3434 6.85861 16.4646 6.84851 16.6969C6.84851 16.7474 6.90911 16.7878 6.94952 16.7575C7.08083 16.6565 7.25255 16.5858 7.42426 16.505C7.36366 16.606 7.32325 16.707 7.37376 16.7878C7.38386 16.808 7.40406 16.8181 7.42426 16.808C7.51517 16.7878 7.56568 16.6969 7.63638 16.6363C7.7576 16.5252 7.86871 16.4141 7.98992 16.2929C8.00002 16.2828 8.00002 16.2828 8.01012 16.2727C8.06063 16.2828 8.11113 16.2828 8.16164 16.2828C8.07073 16.4545 8.02022 16.6262 8.07073 16.7777C8.08083 16.7979 8.10103 16.808 8.12123 16.7979C8.29295 16.7171 8.38386 16.5151 8.50507 16.3737C8.57578 16.2929 8.64649 16.2121 8.71719 16.1313C8.85861 16.0707 9.00002 16 9.11113 15.9596C9.52527 15.7878 9.92931 15.5959 10.3334 15.404C10.7374 15.2121 11.1515 15.0202 11.5253 14.7676C11.6364 14.6969 11.7475 14.606 11.8384 14.4949C12.4142 14.7272 13.0101 14.9293 13.6061 15.0606C13.9091 15.1313 14.4142 15.202 14.798 15.1111C14.8788 15.1818 14.9697 15.2525 15.0606 15.3131C14.8889 15.3939 14.7071 15.4646 14.5152 15.4848C14.2323 15.505 13.9394 15.505 13.6566 15.4949C13.4041 15.4949 13.1414 15.4444 12.899 15.4949C12.8586 15.505 12.8485 15.5656 12.8889 15.5858C13.0707 15.6868 13.2828 15.7171 13.495 15.7474C13.3233 15.7878 13.1515 15.8181 12.9798 15.8585C12.697 15.9192 12.3839 15.9394 12.1313 16.0909C12.101 16.1111 12.101 16.1616 12.1414 16.1717C12.4243 16.2323 12.7273 16.1515 13.0202 16.1212C13.202 16.101 13.394 16.0808 13.5758 16.0606C13.3334 16.1515 13.0909 16.2525 12.8687 16.3737C12.8081 16.404 12.8283 16.5151 12.9091 16.5151C13.3031 16.4949 13.6869 16.3939 14.0707 16.2626C14.4445 16.2929 14.8283 16.2121 15.1919 16.1616C15.5354 16.1212 15.9798 16.1212 16.2828 15.9394C16.495 15.8181 16.6364 15.5858 16.7778 15.3737C17.0505 15.4141 17.3435 15.3232 17.6061 15.2222C17.8283 15.1414 18.0404 15.0404 18.2626 14.9596C18.3435 14.9293 18.4344 14.909 18.5152 14.8888C19.1414 14.7878 19.7677 14.7676 20.4041 14.7676C21.202 14.7676 22 14.7373 22.798 14.6464C23.5556 14.5555 24.3031 14.4242 25.0606 14.2626C25.4647 14.1717 25.8788 14.0909 26.303 14.0707C26.5859 14.0505 27.2424 13.9293 27.3334 14.3131C27.3334 14.3333 27.3435 14.3434 27.3536 14.3535C27.3132 14.3838 27.2828 14.4141 27.2424 14.4444C26.798 14.8383 26.2424 15.1212 25.8182 15.5353C25.7677 15.5757 25.8182 15.6565 25.8788 15.6363C26.3637 15.5252 26.8081 15.1717 27.1919 14.8686C27.4243 14.6969 28.0303 14.3434 27.8586 13.9697Z" fill="#00214D"/>
<path d="M20.4849 3.51515C15.798 -1.17172 8.20202 -1.17172 3.51515 3.51515C-1.17172 8.20202 -1.17172 15.798 3.51515 20.4848C8.20202 25.1717 15.798 25.1717 20.4849 20.4848C25.1616 15.798 25.1616 8.20202 20.4849 3.51515ZM5.21212 5.22222C8.66667 1.76767 14.1111 1.49495 17.8788 4.42424L4.42424 17.8788C1.49495 14.1212 1.75758 8.67676 5.21212 5.22222ZM6.12121 19.5859L19.5859 6.12121C22.5152 9.88889 22.2525 15.3232 18.7879 18.7879C15.3232 22.2424 9.87879 22.505 6.12121 19.5859Z" fill="#FF5470"/>
</svg>
