<svg width="20" height="20" viewBox="0 0 20 20" fill="none" xmlns="http://www.w3.org/2000/svg">
	<path d="M17.0716 17.0686C20.9761 13.1642 20.9761 6.83382 17.0716 2.92934C13.1672 -0.975144 6.83682 -0.975144 2.93233 2.92934C-0.833526 6.6952 -0.972147 12.7021 2.51647 16.6297L2.60889 16.699C2.23923 17.5076 1.59233 18.5242 0.55268 19.0324C0.206128 19.1942 0.298542 19.7024 0.668197 19.7717C1.80027 19.9566 3.41751 19.7486 4.91923 18.6166L4.94233 18.6397C8.7775 20.8807 13.791 20.3493 17.0716 17.0686ZM10.4178 3.83037C11.3189 3.83037 12.0351 4.56968 12.0351 5.47072C12.0351 6.37175 11.2958 7.11106 10.4178 7.11106C9.51682 7.11106 8.7775 6.37175 8.7775 5.44761C8.80061 4.54658 9.51682 3.83037 10.4178 3.83037ZM7.80716 14.3424C7.87647 13.7649 7.96888 13.1642 8.0844 12.5866C8.24613 11.57 8.43095 10.5535 8.61578 9.53692C8.61578 9.46761 8.63888 9.3983 8.63888 9.35209C8.63888 8.93623 8.50026 8.77451 8.0844 8.7283C7.89957 8.7052 7.71475 8.68209 7.55302 8.63589C7.34509 8.56658 7.25268 8.40485 7.27578 8.22003C7.29889 8.0352 7.4144 7.91968 7.64544 7.89658C7.76095 7.87347 7.89957 7.87347 8.01509 7.87347C8.52337 7.87347 9.00854 7.87347 9.51682 7.87347C10.0482 7.87347 10.5796 7.87347 11.111 7.87347C11.4806 7.87347 11.7116 8.0583 11.7347 8.42796C11.7347 8.7514 11.6885 9.07485 11.6423 9.3752C11.4344 10.5304 11.2265 11.7086 10.9954 12.8638C10.9261 13.2566 10.8568 13.6262 10.8106 14.019C10.7875 14.2038 10.8106 14.4117 10.8568 14.5735C10.9261 14.8276 11.111 14.9431 11.342 14.92C11.5499 14.8969 11.7578 14.8276 11.9427 14.7583C12.1044 14.689 12.243 14.5966 12.4047 14.5273C12.6358 14.4349 12.8437 14.5966 12.7744 14.8507C12.7282 14.9893 12.6589 15.128 12.5434 15.2435C11.9427 15.8442 11.2496 16.1907 10.3947 16.2138C10.002 16.2138 9.60923 16.2138 9.21647 16.1445C8.52337 16.0059 7.69164 15.1973 7.80716 14.3424Z" />
</svg>
