<svg width="280" height="114" viewBox="0 0 280 114" fill="none" xmlns="http://www.w3.org/2000/svg">
<path d="M1.34631e-05 99.6603L10.1 83.1234L20.9305 79.3314L27.3675 105.968L15.1589 108.919L1.34631e-05 99.6603Z" fill="white"/>
<ellipse cx="213.391" cy="42.0554" rx="66.6095" ry="41.9841" fill="white"/>
<path d="M212.898 74.2499H212.999C213.288 74.2122 213.955 74.1367 229.984 59.3408C234.777 54.9121 245.975 44.5197 246.378 43.5761C246.541 43.1986 246.881 42.406 241.257 31.1958C240.338 29.3589 235.683 20.1744 234.538 19.3188C233.142 18.2745 211.602 18.262 210.684 18.262C192.591 18.262 192.176 19.0546 191.899 19.5704L191.497 20.3253C179.884 42.1795 179.884 42.8967 179.884 43.2867C179.884 43.6642 179.884 44.3687 195.85 59.3282C211.778 74.2499 212.558 74.2499 212.898 74.2499ZM181.457 43.1609C181.821 42.2173 183.759 38.0905 192.843 21.0173L193.145 20.4386C194.227 20.0863 199.952 19.7592 210.684 19.7592C222.85 19.7592 232.425 20.1744 233.658 20.5518C235.281 22.2252 244.465 40.6068 244.918 43.0351C242.792 45.6143 216.232 70.1232 212.873 72.6269C209.438 70.2113 183.734 46.1301 181.457 43.1609Z" fill="#00214D"/>
<mask id="mask0" mask-type="alpha" maskUnits="userSpaceOnUse" x="181" y="19" width="64" height="54">
<path d="M244.918 43.0225C244.465 40.5942 235.281 22.2126 233.658 20.5392C232.425 20.1618 222.85 19.7466 210.684 19.7466C199.952 19.7466 194.227 20.0863 193.145 20.426L192.843 21.0047C183.759 38.0779 181.822 42.2047 181.457 43.1483C183.747 46.1176 209.438 70.1987 212.886 72.6143C216.245 70.1106 242.792 45.6017 244.918 43.0225Z" fill="#FDE24F"/>
</mask>
<g mask="url(#mask0)">
<path d="M222.752 65.8686L220.753 63.868C220.564 63.6789 220.313 63.5765 220.045 63.5765H219.002C219.03 63.2379 219.049 62.9031 219.049 62.5762C219.049 62.4502 219.034 62.3439 219.03 62.2218L221.623 60.3945C221.891 60.2094 222.048 59.9022 222.048 59.5792V57.5786C222.048 57.0273 221.599 56.5783 221.048 56.5783C220.498 56.5783 220.049 57.0273 220.049 57.5786V59.0594L218.624 60.0636C218.125 58.8546 217.22 58.2127 216.059 57.8897C216.067 57.7913 216.09 57.6968 216.09 57.5944C216.09 57.4093 216.067 57.2281 216.035 57.0509C217.235 56.3538 218.054 55.07 218.054 53.5853C218.054 53.0339 217.605 52.585 217.054 52.585C216.503 52.585 216.055 53.0339 216.055 53.5853C216.055 54.3296 215.646 54.9755 215.044 55.326C214.516 54.8652 213.832 54.5777 213.076 54.5777C212.309 54.5777 211.62 54.8731 211.089 55.3417C210.471 54.9952 210.046 54.3414 210.046 53.5853C210.046 53.0339 209.598 52.585 209.047 52.585C208.496 52.585 208.047 53.0339 208.047 53.5853C208.047 55.0897 208.889 56.3893 210.113 57.0785C210.085 57.2478 210.062 57.4172 210.062 57.5944C210.062 57.6928 210.082 57.7834 210.089 57.8779C208.913 58.1969 207.996 58.8389 207.492 60.0636L206.064 59.0594V57.5786C206.064 57.0273 205.615 56.5783 205.064 56.5783C204.514 56.5783 204.065 57.0273 204.065 57.5786V59.5792C204.065 59.9061 204.222 60.2094 204.49 60.3945L207.083 62.2218C207.079 62.3439 207.063 62.4502 207.063 62.5762C207.063 62.9031 207.083 63.2379 207.111 63.5765H206.064C205.8 63.5765 205.544 63.6829 205.36 63.868L203.357 65.8686C202.967 66.2585 202.967 66.8925 203.357 67.2824C203.553 67.4793 204.096 67.8298 204.769 67.2824L206.473 65.5772H207.433C207.551 66.0813 207.693 66.5814 207.862 67.0697L205.485 68.7435C205.218 68.9325 205.06 69.2358 205.06 69.5626V71.5593C205.06 72.1107 205.509 72.5596 206.06 72.5596C206.611 72.5596 207.059 72.1107 207.059 71.5593V70.0786L208.669 68.9443C209.763 71.0395 211.321 72.5754 213.056 72.5754C214.792 72.5754 216.346 71.0395 217.444 68.9443L219.053 70.0786V71.5593C219.053 72.1107 219.502 72.5596 220.053 72.5596C220.604 72.5596 221.052 72.1107 221.052 71.5593V69.5587C221.052 69.2318 220.895 68.9286 220.627 68.7396L218.251 67.0658C218.42 66.5775 218.562 66.0773 218.68 65.5732H219.636L221.34 67.2785C221.536 67.4754 222.111 67.8416 222.752 67.2785C223.169 66.9162 223.142 66.2585 222.752 65.8686Z" fill="#00214D"/>
</g>
<path d="M199.747 50.6708C196.911 50.6708 194.714 49.7067 193.154 47.7786C191.595 45.8221 190.815 42.8731 190.815 38.9317C190.815 35.0754 191.595 32.169 193.154 30.2125C194.742 28.256 196.84 27.2778 199.449 27.2778C200.952 27.2778 202.27 27.5471 203.405 28.0859C204.567 28.6246 205.474 29.3902 206.127 30.3826H206.382V19.4092H212.209V50.1604H207.232L206.85 47.2256H206.552C205.843 48.3599 204.893 49.2247 203.702 49.8201C202.511 50.3872 201.193 50.6708 199.747 50.6708ZM201.618 45.6094C204.794 45.6094 206.382 43.5253 206.382 39.3571V38.6765C206.382 34.4516 204.794 32.3392 201.618 32.3392C199.888 32.3392 198.655 32.8637 197.918 33.9129C197.181 34.9337 196.812 36.4932 196.812 38.5915V39.3571C196.812 41.4554 197.181 43.0291 197.918 44.0782C198.655 45.099 199.888 45.6094 201.618 45.6094Z" fill="#00214D"/>
<path d="M225.365 50.6708C221.764 50.6708 219.071 49.7209 217.284 47.8211C215.526 45.9213 214.647 42.9724 214.647 38.9743C214.647 34.9762 215.526 32.0272 217.284 30.1274C219.071 28.2276 221.764 27.2778 225.365 27.2778C228.683 27.2778 231.164 28.2418 232.809 30.17C234.453 32.0698 235.276 35.0045 235.276 38.9743V40.3353H220.559C220.616 42.3202 221.013 43.7947 221.75 44.7587C222.487 45.6945 223.721 46.1623 225.45 46.1623C226.67 46.1623 227.648 45.8221 228.385 45.1415C229.151 44.461 229.534 43.4969 229.534 42.2493H235.276C235.276 45.0565 234.368 47.1689 232.553 48.5867C230.739 49.9761 228.343 50.6708 225.365 50.6708ZM229.236 36.4648C229.236 33.3741 227.946 31.8288 225.365 31.8288C223.891 31.8288 222.771 32.2116 222.005 32.9771C221.268 33.7427 220.814 34.9053 220.644 36.4648H229.236Z" fill="#00214D"/>
<path d="M248.149 32.084C246.362 32.084 244.987 31.6728 244.023 30.8505C243.059 29.9999 242.577 28.8515 242.577 27.4054V27.1076H246.107V27.4479C246.107 28.015 246.277 28.4545 246.618 28.7664C246.986 29.05 247.482 29.1917 248.106 29.1917C248.702 29.1917 249.169 29.05 249.51 28.7664C249.85 28.4545 250.02 28.0008 250.02 27.4054C250.02 26.1294 249.311 25.4914 247.894 25.4914H246.532V22.5566H247.979C248.517 22.5566 248.943 22.4149 249.255 22.1313C249.566 21.8194 249.722 21.3515 249.722 20.7277C249.722 19.6502 249.184 19.1115 248.106 19.1115C247.596 19.1115 247.185 19.2532 246.873 19.5368C246.561 19.8204 246.405 20.2173 246.405 20.7277V21.068H242.875V20.5576C242.875 19.2532 243.357 18.2041 244.321 17.4102C245.313 16.6162 246.561 16.2192 248.064 16.2192C249.652 16.2192 250.913 16.602 251.849 17.3676C252.813 18.1049 253.295 19.1682 253.295 20.5576C253.295 21.3232 253.097 21.9612 252.7 22.4716C252.331 22.982 251.764 23.4356 250.998 23.8326V24.0027C251.821 24.3147 252.459 24.7825 252.912 25.4063C253.366 26.0018 253.593 26.739 253.593 27.618C253.593 29.0074 253.083 30.0991 252.062 30.8931C251.069 31.687 249.765 32.084 248.149 32.084Z" fill="#00214D"/>
<path d="M17.1954 91.306L170.195 10.1636C170.195 10.1636 106.008 66.6807 227.52 82.8284L22.4435 97.3614L17.1954 91.306Z" fill="white" fill-opacity="0.5"/>
<rect x="4.68091" y="99.3799" width="4.84432" height="12.9182" fill="white"/>
</svg>
