<svg xmlns="http://www.w3.org/2000/svg" xmlns:xlink="http://www.w3.org/1999/xlink" x="0px" y="0px" viewBox="0 0 31.9 30.6" xml:space="preserve">
	<path d="M2.3,16.6c2.5,5,6.6,9.1,11.7,11.7l2.2,1.1c1.5,0.8,3.2,1.2,4.9,1.2c0.9,0,1.8-0.1,2.6-0.3c2.6-0.7,4.7-2.5,5.8-4.9l0.6-1.2
	c0.3-0.6,0.1-1.3-0.5-1.7l-7.1-5c-0.4-0.3-1-0.3-1.5-0.1l-1.4,0.8c-2.4,1.2-5.4,0.3-6.8-2c-1.1-1.6-1.2-3.6-0.3-5.3l0.7-1.3
	c0.3-0.5,0.2-1-0.1-1.5L8.2,1C7.8,0.4,7.1,0.2,6.5,0.5L5.3,1.1C2.9,2.1,1,4.3,0.4,6.8C-0.3,9.3,0,12,1.2,14.4L2.3,16.6z M3,7.6
	c0.3-1,0.8-2,1.6-2.8c0.5-0.5,1.2-0.9,1.8-1.3l0.2-0.1L10.4,9l-0.3,0.5c-1.4,2.6-1.3,5.7,0.4,8.2c2.2,3.5,6.7,4.8,10.4,2.9l0.7-0.4
	l5.5,3.8L27,24.2c-0.3,0.7-0.7,1.3-1.3,1.8c-0.8,0.8-1.7,1.3-2.8,1.6c-1.9,0.5-3.8,0.3-5.5-0.6l-2.3-1.2C10.7,23.5,7,19.9,4.8,15.4
	l-1.1-2.2C2.7,11.4,2.5,9.4,3,7.6z M18.7,1c0.2-0.7,1-1.1,1.7-0.9c5.2,1.6,9.4,5.5,11.4,10.6c0.3,0.7-0.1,1.5-0.8,1.8
	c-0.7,0.3-1.5-0.1-1.8-0.8c-1.7-4.3-5.3-7.5-9.7-8.9C18.9,2.6,18.4,1.8,18.7,1C18.7,1,18.7,1,18.7,1z M17.7,6.4
	c0.3-0.7,1-1.1,1.8-0.8c3,1.1,5.5,3.3,6.9,6.2c0.3,0.7,0,1.5-0.7,1.8c-0.7,0.3-1.5,0-1.8-0.6c-1.1-2.2-3-4-5.3-4.8
	C17.8,7.9,17.4,7.1,17.7,6.4L17.7,6.4z" />
</svg>
