<svg width="24" height="24" viewBox="0 0 24 24" fill="none" xmlns="http://www.w3.org/2000/svg">
<path d="M18.2719 8.63779C17.8959 8.77874 17.6645 9.13345 17.6594 9.51214L16.6721 9.88222C16.5621 9.63901 16.4333 9.40973 16.2913 9.19214C16.6488 8.83141 16.6576 8.25048 16.3044 7.8813C15.9509 7.51185 15.3695 7.49522 14.9933 7.8373C14.8129 7.70774 14.6265 7.58697 14.4313 7.48203L14.8674 6.52304C15.2456 6.54382 15.6152 6.3371 15.7815 5.97153C15.998 5.49545 15.7875 4.93405 15.3115 4.71752C14.8354 4.50103 14.274 4.71147 14.0575 5.18756C13.8912 5.5532 13.9785 5.96763 14.2427 6.23903L13.8067 7.19797C13.5606 7.10527 13.3071 7.03244 13.0488 6.97833C13.0456 6.47127 12.6415 6.05521 12.1313 6.04394C11.6197 6.03265 11.1965 6.43265 11.173 6.94096C10.9565 6.97665 10.74 7.02218 10.5249 7.08692L10.1548 6.09957C10.4368 5.84679 10.5521 5.43931 10.4111 5.06325C10.2276 4.57355 9.68179 4.32539 9.19209 4.50894C8.70237 4.69251 8.45419 5.23829 8.63774 5.72798C8.77871 6.10407 9.13348 6.33549 9.51221 6.34052L9.88227 7.32781C9.63899 7.43784 9.40971 7.56664 9.19208 7.7086C8.8313 7.35111 8.25043 7.34232 7.88128 7.69554C7.5118 8.04908 7.4952 8.63048 7.83725 9.00662C7.70771 9.18706 7.58693 9.37341 7.48199 9.5686L6.52302 9.13256C6.54376 8.75434 6.33709 8.3847 5.97148 8.21845C5.49542 8.00195 4.93399 8.2124 4.7175 8.68849C4.50102 9.16461 4.71145 9.72601 5.18754 9.9425C5.55313 10.1087 5.96757 10.0215 6.23901 9.75721L7.19794 10.1933C7.10524 10.4394 7.03243 10.6929 6.97831 10.9512C6.47125 10.9544 6.05514 11.3584 6.0439 11.8687C6.03258 12.3802 6.43261 12.8034 6.94092 12.827C6.97662 13.0435 7.02212 13.26 7.08689 13.4751L6.09957 13.8452C5.84679 13.5631 5.43925 13.4479 5.06322 13.5888C4.57352 13.7724 4.32535 14.3182 4.5089 14.8079C4.69245 15.2976 5.23823 15.5458 5.72793 15.3622C6.10396 15.2213 6.33535 14.8666 6.34045 14.4878L7.32777 14.1177C7.43779 14.361 7.56659 14.5902 7.70858 14.8079C7.35111 15.1686 7.34226 15.7495 7.6955 16.1187C8.04902 16.4882 8.63046 16.5048 9.00659 16.1627C9.18708 16.2922 9.3734 16.413 9.56863 16.518L9.13257 17.4769C8.75432 17.4562 8.38464 17.6629 8.21837 18.0284C8.00188 18.5045 8.21232 19.066 8.68841 19.2825C9.16448 19.4989 9.72592 19.2885 9.94239 18.8124C10.1086 18.4468 10.0214 18.0324 9.7572 17.761L10.1933 16.802C10.4393 16.8947 10.6928 16.9675 10.951 17.0217C10.9543 17.5287 11.3583 17.9448 11.8685 17.956C12.3802 17.9674 12.8033 17.5674 12.8269 17.059C13.0434 17.0233 13.2599 16.9778 13.4751 16.913L13.8451 17.9003C13.563 18.1531 13.4478 18.5606 13.5887 18.9367C13.7723 19.4264 14.3181 19.6746 14.8078 19.4911C15.2975 19.3075 15.5457 18.7617 15.3621 18.272C15.2212 17.896 14.8665 17.6646 14.4878 17.6595L14.1177 16.6721C14.3609 16.5621 14.5902 16.4333 14.8078 16.2913C15.1685 16.6488 15.7494 16.6577 16.1186 16.3044C16.4881 15.9509 16.5047 15.3695 16.1626 14.9934C16.2922 14.8129 16.413 14.6265 16.5179 14.4313L17.4769 14.8673C17.4561 15.2456 17.6628 15.6153 18.0284 15.7815C18.5044 15.998 19.0659 15.7875 19.2824 15.3115C19.4988 14.8354 19.2884 14.274 18.8123 14.0575C18.4468 13.8913 18.0323 13.9784 17.7609 14.2427L16.8019 13.8066C16.8946 13.5606 16.9674 13.307 17.0216 13.0489C17.5286 13.0456 17.9448 12.6416 17.956 12.1314C17.9673 11.6198 17.5673 11.1965 17.059 11.173C17.0233 10.9565 16.9778 10.74 16.913 10.5249L17.9003 10.1548C18.1531 10.4369 18.5606 10.5521 18.9366 10.4112C19.4264 10.2276 19.6745 9.68179 19.491 9.1921C19.3074 8.7024 18.7617 8.45422 18.2719 8.63779ZM10.6002 13.0026C10.4731 13.3722 10.0705 13.5689 9.70081 13.4418C9.33116 13.3147 9.13454 12.9121 9.26159 12.5424C9.38863 12.1728 9.7913 11.9761 10.161 12.1032C10.5306 12.2302 10.7272 12.6329 10.6002 13.0026ZM14.1799 13.8025C14.0892 14.0663 13.8018 14.2067 13.5379 14.116C13.2741 14.0253 13.1337 13.7379 13.2244 13.4741C13.3151 13.2102 13.6025 13.0699 13.8663 13.1605C14.1302 13.2512 14.2706 13.5386 14.1799 13.8025ZM13.5016 10.5241C13.3061 11.0928 12.6866 11.3953 12.1179 11.1998C11.5492 11.0043 11.2467 10.3849 11.4422 9.81617C11.6377 9.24749 12.2572 8.94495 12.8258 9.14043C13.3945 9.33589 13.6971 9.95538 13.5016 10.5241Z" fill="#00214D"/>
<path d="M20.4849 3.51515C15.798 -1.17172 8.20202 -1.17172 3.51515 3.51515C-1.17172 8.20202 -1.17172 15.798 3.51515 20.4848C8.20202 25.1717 15.798 25.1717 20.4849 20.4848C25.1616 15.798 25.1616 8.20202 20.4849 3.51515ZM5.21212 5.22222C8.66667 1.76767 14.1111 1.49495 17.8788 4.42424L4.42424 17.8788C1.49495 14.1212 1.75758 8.67676 5.21212 5.22222ZM6.12121 19.5859L19.5859 6.12121C22.5152 9.88889 22.2525 15.3232 18.7879 18.7879C15.3232 22.2424 9.87879 22.505 6.12121 19.5859Z" fill="#FF5470"/>
</svg>
