<svg width="35" height="30" viewBox="0 0 35 30" fill="none" xmlns="http://www.w3.org/2000/svg">
	<path d="M23.7771 0.510836C24.2415 0.650155 24.7059 0.789474 25.1703 0.975232C25.6347 1.16099 26.0991 1.34675 26.517 1.57895C26.935 1.76471 27.3994 1.9969 27.7709 2.27554C28.2353 2.55418 28.6068 2.83282 29.0248 3.11146C29.3963 3.39009 29.7678 3.71517 30.1393 4.08669C30.5108 4.41176 30.8359 4.73684 31.161 5.10836C31.4861 5.47988 31.7647 5.89783 32.0898 6.26935C32.3684 6.68731 32.6471 7.10526 32.8793 7.52322C33.1115 7.94118 33.3437 8.35913 33.5294 8.82353C33.7616 9.28793 33.9474 9.75232 34.0867 10.2167C34.226 10.6811 34.3653 11.1455 34.5046 11.6099C34.5975 12.1207 34.6904 12.5851 34.7368 13.0495C34.8297 13.5604 34.8762 14.0712 34.8762 14.5356C34.8762 15.0464 34.8762 15.5108 34.8297 15.9752C34.8297 16.4861 34.7368 16.9505 34.6904 17.4613C34.5975 17.9721 34.5046 18.4365 34.3653 18.9009C34.226 19.3653 34.0867 19.8297 33.9009 20.2941C33.7616 20.7585 33.5294 21.2229 33.3437 21.6409C33.1115 22.0588 32.8793 22.5232 32.6006 22.9412C32.3684 23.3591 32.0898 23.7306 31.7647 24.1486C31.4861 24.5201 31.161 24.8916 30.8359 25.2632C30.5108 25.6347 30.1393 25.9598 29.7678 26.2848C29.3963 26.6099 29.0248 26.935 28.6068 27.2136C28.1889 27.4923 27.7709 27.7709 27.3994 28.0031L27.1672 28.1424C26.7957 28.3282 26.4241 28.5139 26.0526 28.6997C25.5882 28.8854 25.1238 29.0712 24.7059 29.2105C24.2415 29.3963 23.7771 29.4892 23.2663 29.6285C22.8019 29.7214 22.3375 29.8142 21.8266 29.9071H21.7337H21.6873C21.2693 29.9536 20.805 30 20.3406 30C19.8762 30 19.3653 30 18.9009 30C18.4365 29.9536 17.9257 29.9071 17.4149 29.8142C16.9505 29.7214 16.4396 29.6285 15.9752 29.4892C15.6966 29.4427 15.418 29.3498 15.0929 29.2105C14.8142 29.1176 14.4892 29.0248 14.2105 28.8854C13.8854 28.7926 13.6068 28.6533 13.3282 28.5139C13.0495 28.3746 12.7709 28.2353 12.4923 28.0495C12.2136 27.9102 11.9814 27.7709 11.7957 27.6316C11.5635 27.4923 11.3777 27.3994 11.1919 27.2601L11.0991 27.1672C10.9133 27.0279 10.6811 26.8885 10.4954 26.7028C10.356 26.6099 10.2167 26.517 10.0774 26.3777L2.83282 26.7028H2.27554L1.53251 26.7492H1.02167L0 26.7957L0.510836 25.9133L0.743034 25.4489L1.06811 24.8916L1.11455 24.8452L1.39319 24.3344L5.1548 17.8328C5.10836 17.6471 5.06192 17.4613 5.06192 17.322L5.01548 16.9505L4.96904 16.7183V16.5789C4.9226 16.3003 4.9226 16.0217 4.87616 15.7895L4.9226 15.743C4.87616 15.5108 4.87616 15.2322 4.87616 14.9536C4.87616 14.6285 4.87616 14.3034 4.9226 13.9783C4.9226 13.6997 4.96904 13.3746 5.01548 13.0495C5.06192 12.7245 5.10836 12.3994 5.1548 12.0743C5.24768 11.7492 5.29412 11.4241 5.387 11.1455C5.52632 10.6811 5.66563 10.2167 5.85139 9.75232C6.03715 9.24149 6.22291 8.82353 6.40867 8.40557C6.64087 7.94118 6.87306 7.52322 7.1517 7.10526C7.3839 6.68731 7.66254 6.26935 7.98762 5.89783C8.26625 5.47988 8.59133 5.10836 8.91641 4.78328C9.28792 4.41176 9.613 4.08669 9.98452 3.76161C10.356 3.43653 10.7276 3.11146 11.1455 2.83282C11.5635 2.50774 11.9814 2.27554 12.3994 2.04334C12.8173 1.76471 13.2353 1.57895 13.6997 1.34675C14.1176 1.16099 14.582 0.975232 15.0464 0.835913C15.5108 0.650155 15.9752 0.510836 16.4861 0.417957C16.9505 0.278638 17.4613 0.185759 17.9257 0.139319C18.3901 0.0928793 18.9009 0.0464396 19.4118 0.0464396V0C19.8762 0 20.387 0 20.8514 0.0464396C21.3622 0.0928793 21.8266 0.139319 22.3375 0.232198C22.8019 0.278638 23.3127 0.417957 23.7771 0.510836ZM10.1703 23.2198H10.7276H10.9133H11.0062L11.2384 23.1734L11.4241 23.3591L11.517 23.452L11.6563 23.5449C11.8421 23.7306 12.0279 23.9164 12.2136 24.0557C12.3994 24.2415 12.5851 24.3808 12.7709 24.5201C12.9567 24.6594 13.1889 24.7988 13.4211 24.9381C13.6068 25.1238 13.839 25.2167 14.0248 25.356C14.257 25.4489 14.4892 25.5882 14.7214 25.6811C14.8607 25.774 15.0464 25.8669 15.1858 25.9133H15.2322L15.3715 26.0062C15.6037 26.0991 15.8824 26.1919 16.0681 26.2384C16.3003 26.3313 16.5325 26.3777 16.8111 26.4706C17.1827 26.5635 17.6006 26.6563 17.9721 26.7028C18.3437 26.7957 18.7152 26.8421 19.1331 26.8421C19.5046 26.8885 19.8762 26.8885 20.2941 26.8885C20.6656 26.8421 21.0371 26.8421 21.4087 26.7957C21.8266 26.7492 22.1981 26.6563 22.5697 26.5635C22.9412 26.4706 23.3127 26.3777 23.6842 26.2384C24.0557 26.1455 24.4272 26.0062 24.7523 25.8204C25.1238 25.6811 25.4489 25.4954 25.8204 25.3096C26.1455 25.0774 26.4706 24.8916 26.7957 24.6594C27.1207 24.4272 27.3994 24.195 27.7245 23.9164C28.0031 23.6842 28.2817 23.4056 28.5604 23.1269C28.7926 22.8483 29.0712 22.5697 29.3034 22.2446C29.5356 21.9195 29.7678 21.5944 29.9536 21.2694C30.1393 20.9443 30.3251 20.6192 30.5108 20.2477C30.6966 19.9226 30.8359 19.5511 30.9752 19.1796C31.1145 18.8545 31.2074 18.483 31.3467 18.065C31.4396 17.6935 31.5325 17.322 31.5789 16.9505C31.6254 16.5789 31.6718 16.161 31.7183 15.7895C31.7647 15.418 31.7647 15 31.7183 14.6285C31.7183 14.257 31.7183 13.9319 31.6718 13.5604L31.6254 13.4675C31.5789 13.096 31.5325 12.7245 31.4396 12.3065C31.3467 11.935 31.2539 11.5635 31.1145 11.192C30.9752 10.8204 30.8359 10.4954 30.6966 10.1238C30.5573 9.79876 30.3715 9.42725 30.1393 9.10217C29.7678 8.40557 29.3034 7.75542 28.7926 7.19814C28.3282 6.64087 27.7709 6.13003 27.2136 5.66563L27.1207 5.61919C26.7957 5.387 26.4706 5.1548 26.1455 4.9226C25.8204 4.73684 25.4954 4.55108 25.1238 4.36532C24.7988 4.22601 24.4272 4.04025 24.0557 3.90093C23.7306 3.80805 23.3591 3.66873 22.9412 3.57585C22.5697 3.43653 22.1517 3.39009 21.8266 3.29721C21.4087 3.25077 21.0371 3.20433 20.6656 3.15789C20.2477 3.15789 19.8762 3.15789 19.5046 3.15789C19.0867 3.15789 18.7152 3.20433 18.3437 3.25077C17.9257 3.29721 17.5542 3.39009 17.1827 3.43653C16.8111 3.52941 16.4396 3.66873 16.0681 3.76161C15.6966 3.90093 15.3251 4.04025 15 4.22601C14.6285 4.36532 14.3034 4.55108 13.9319 4.73684C13.6068 4.9226 13.2817 5.1548 12.9567 5.387C12.6316 5.61919 12.3529 5.85139 12.0279 6.08359C11.7492 6.36223 11.4706 6.64087 11.2384 6.9195C10.9598 7.19814 10.6811 7.47678 10.4489 7.80186L10.356 7.94118C10.1703 8.17338 9.98452 8.45201 9.79876 8.73065C9.613 9.05573 9.42724 9.42725 9.24149 9.75232C9.05573 10.1238 8.91641 10.4954 8.77709 10.8204C8.63777 11.192 8.54489 11.5635 8.40557 11.935C8.35913 12.2136 8.31269 12.4458 8.26625 12.678C8.21981 12.9102 8.17337 13.1424 8.12693 13.4211C8.08049 13.6997 8.08049 13.9319 8.03405 14.1641C8.03405 14.3963 8.03405 14.6749 8.03405 14.9071C7.98762 15.1393 8.03405 15.418 8.03405 15.6502C8.03405 15.8824 8.08049 16.161 8.08049 16.3932C8.12693 16.6254 8.17337 16.8576 8.21981 17.1362C8.26625 17.3684 8.31269 17.6006 8.35913 17.8328L8.40557 17.9721V18.0186V18.1115L8.45201 18.3437L8.35913 18.5294L8.31269 18.6223L8.26625 18.7152L8.21981 18.7616L7.80186 19.5511L7.43034 20.1548L6.9195 21.0836L5.52632 23.452L9.89164 23.2663L10.1238 23.2198H10.1703Z" />
	<path fill-rule="evenodd" clip-rule="evenodd" d="M15.1858 5.89788C12.678 6.96599 11.8885 9.24153 12.3529 11.7957C12.6316 13.3282 13.1889 14.8607 14.1641 16.7183C15.1393 18.5759 16.3932 20.3406 17.7399 21.7338C21.3622 25.449 27.2136 24.7988 25.2632 21.548C24.2879 20.0155 23.7306 18.7617 23.7306 18.7617C23.7306 18.7617 23.3127 17.8793 22.4768 18.3901C21.5944 18.9474 20.7585 19.5511 20.3406 19.4583C19.6904 19.3654 14.582 12.8174 16.5325 11.7957C17.4149 11.3778 18.9474 10.8669 18.2972 9.79881C17.8328 9.00933 16.161 6.17652 16.161 6.17652C16.161 6.17652 15.8359 5.5728 15.1858 5.89788Z" />
</svg>
