<svg width="24" height="24" viewBox="0 0 24 24" fill="none" xmlns="http://www.w3.org/2000/svg">
<path d="M18.5152 15.5454C18.2323 14.2222 17.596 12.9798 16.7677 11.9192C15.9596 10.8788 14.9899 10.0404 13.9192 9.30301C13.9091 9.1515 13.8889 8.99998 13.8586 8.85857C13.9192 8.77776 13.9798 8.70706 14.0404 8.63635C14.202 8.46463 14.3434 8.28281 14.4849 8.09089C14.5455 8.1212 14.6263 8.10099 14.6667 8.04039C14.9899 7.52524 15.1212 6.64645 15.0202 5.99998C15.1414 5.97978 15.2525 5.87877 15.3637 5.81817C15.5253 5.71716 15.697 5.61615 15.8485 5.50504C15.9293 5.44443 15.8384 5.29291 15.7475 5.32321C15.5657 5.39392 15.394 5.48483 15.2222 5.57574C15.1212 5.62624 15.0101 5.66665 14.9192 5.73736C14.8788 5.72726 14.8384 5.74746 14.8283 5.78786C14.7071 6.1515 14.6667 6.54544 14.596 6.92928C14.5354 7.22221 14.4445 7.51514 14.4142 7.80807C14.1717 8.01009 13.9394 8.2222 13.7071 8.45453L13.697 8.46463C13.6768 8.42423 13.6566 8.39392 13.6263 8.36362C13.6667 8.34342 13.7071 8.31312 13.7475 8.28281C14.0808 8.04039 14.0303 7.60605 13.9394 7.25251C13.8889 7.07069 13.8283 6.88887 13.7475 6.72726C13.6263 6.33332 13.3435 5.99998 12.9798 5.79796C12.9495 5.77776 12.9192 5.75756 12.8889 5.73736C12.899 5.68685 12.9192 5.63635 12.9293 5.58584C13.0909 5.07069 13.2828 4.56564 13.4546 4.06059C13.495 3.93938 13.303 3.85857 13.2424 3.96968C12.9899 4.43433 12.7879 4.90908 12.6061 5.40403C12.596 5.44443 12.5758 5.48483 12.5556 5.52523C12.4546 5.47473 12.3535 5.42423 12.2525 5.38382C12.1414 5.33332 12.0505 5.37372 11.9899 5.43433C11.7677 4.86867 11.3636 4.34342 10.9899 3.97978C10.9091 3.89897 10.8081 4.02019 10.8687 4.10099C11.1717 4.47473 11.4041 4.87877 11.5859 5.32321C11.6364 5.44443 11.6667 5.57574 11.697 5.69695C11.4142 5.89897 11.1818 6.22221 11.0404 6.54544C10.8081 6.93938 10.6364 7.36362 10.5657 7.73736C10.4849 8.1717 10.8283 8.40403 11.2626 8.51514C11.1919 8.57574 11.1212 8.63635 11.0606 8.69695C10.9394 8.61614 10.8182 8.53534 10.7071 8.44443C10.4546 8.23231 10.202 8.03029 9.9394 7.82827C9.9293 7.1414 9.97982 6.42422 9.8586 5.74746C9.8485 5.69695 9.81819 5.67675 9.77779 5.65655C9.69698 5.55554 9.59598 5.46463 9.50507 5.39392C9.35355 5.26261 9.19193 5.1515 9.02022 5.06059C8.94951 5.02019 8.8586 5.1212 8.9293 5.1818C9.07072 5.29291 9.19193 5.41413 9.31315 5.55554C9.41416 5.66665 9.48486 5.81816 9.58587 5.92927C9.49496 6.55554 9.53537 7.23231 9.52527 7.85857C9.52527 7.99998 9.64648 8.07069 9.7475 8.06059C9.92931 8.34342 10.1515 8.58584 10.4041 8.82826C10.495 8.90907 10.596 9.01008 10.697 9.10099C10.5556 9.06059 10.4243 9.02019 10.2929 8.96968C9.8687 8.80807 9.46466 8.60604 9.07072 8.39392C8.98991 8.34342 8.8687 8.35352 8.8081 8.42422C8.36365 8.88887 7.8283 9.35352 7.50506 9.91917C7.49496 9.93937 7.48487 9.95958 7.48487 9.97978C7.21214 9.82827 6.798 9.91918 6.52527 9.99999C6.47477 10.0101 6.48486 10.101 6.53537 10.0909C6.71719 10.0909 6.90911 10.1111 7.08083 10.1414C7.23234 10.1616 7.36365 10.2222 7.50506 10.202C7.54547 10.1919 7.57578 10.1515 7.58588 10.1111C7.61618 10.1212 7.64649 10.1111 7.67679 10.0909C8.17174 9.77776 8.58588 9.28281 9.00002 8.84847C9.39396 9.07069 9.83839 9.29291 10.2929 9.46463C8.33334 10.7071 6.49496 12.4141 5.69698 14.606C5.50506 15.1414 4.87881 17.202 6.12123 16.9798C6.64648 16.8889 7.03032 16.3434 7.30304 15.9293C7.72729 15.2828 8.14143 14.6262 8.54547 13.9798C8.66668 13.7778 8.78789 13.5858 8.90911 13.3838C8.91921 13.4545 8.9192 13.5353 8.9293 13.606C8.96971 14.303 8.97981 15.0606 9.16163 15.7475C8.8182 16.1717 8.57577 16.6768 8.36365 17.1818C8.33335 17.2525 8.44446 17.3232 8.49497 17.2626C8.8283 16.8384 9.18184 16.3939 9.45456 15.9293C9.49497 15.8586 9.47476 15.7879 9.43435 15.7374C9.47476 15.0101 9.36366 14.2525 9.34345 13.5353C9.33335 13.2727 9.34345 12.9899 9.35355 12.7071C9.54547 12.3838 9.73739 12.0707 9.92931 11.7475C10.1212 11.4242 10.3536 11.0808 10.5556 10.7374C10.5859 10.8384 10.6162 10.9495 10.6667 11.0404C10.7677 11.2525 10.9192 11.4444 11.0909 11.5959C10.1919 12.2424 10.0202 13.9899 10.1212 14.9091C10.2828 16.4242 11.0606 18.2424 12.3334 19.1616C12.4445 19.2424 12.5657 19.0909 12.5051 18.9899C12.495 18.9798 12.4849 18.9596 12.4849 18.9495C13.0202 18.4343 13.3435 17.7071 13.5859 17.0101C13.8788 16.1818 14.0808 15.303 14.101 14.4141C14.1212 13.6464 13.9798 12.8889 13.6566 12.1919C13.5657 12 13.4546 11.7879 13.3232 11.5858C13.4647 11.4242 13.5859 11.2424 13.6667 11.0404C13.899 11.6768 14.2222 12.2929 14.5758 12.8586C14.5758 13.0505 14.5657 13.2424 14.5657 13.4343C14.5354 14.2424 14.5253 15.0404 14.5253 15.8485C14.5152 15.8586 14.5152 15.8687 14.5152 15.8889C14.495 15.9495 14.5152 16.0202 14.5556 16.0606C14.7172 16.202 14.8687 16.3434 15.0202 16.4949C15.1616 16.6464 15.2929 16.7879 15.4647 16.8889C15.5354 16.9293 15.6364 16.8586 15.6162 16.7778C15.4849 16.3838 15.1111 16.0707 14.8182 15.8081C14.7879 15.7879 14.7576 15.7677 14.7273 15.7677C14.7879 15.0202 14.8485 14.2727 14.8889 13.5252C14.8889 13.4646 14.899 13.404 14.899 13.3434C15.5657 14.3737 16.3536 15.3838 17.1818 16.2626C17.4445 16.5353 17.9495 16.9798 18.3535 16.7273C18.7374 16.4848 18.5859 15.899 18.5152 15.5454Z" fill="#00214D"/>
<path d="M20.4848 3.51515C15.798 -1.17172 8.20202 -1.17172 3.51515 3.51515C-1.17172 8.20202 -1.17172 15.798 3.51515 20.4848C8.20202 25.1717 15.798 25.1717 20.4848 20.4848C25.1717 15.798 25.1717 8.20202 20.4848 3.51515ZM5.22222 5.22222C8.67677 1.76767 14.1212 1.49495 17.8889 4.42424L4.42424 17.8889C1.49495 14.1212 1.75758 8.67676 5.22222 5.22222ZM6.12122 19.5859L19.5859 6.12121C22.5151 9.88889 22.2525 15.3232 18.7879 18.7879C15.3333 22.2424 9.88889 22.505 6.12122 19.5859Z" fill="#FF5470"/>
</svg>
