<svg width="320" height="242" viewBox="0 0 320 242" fill="none" xmlns="http://www.w3.org/2000/svg">
<g opacity="0.2">
<path d="M647.718 176.634H-100.875V340H647.718V176.634Z" fill="url(#paint0_linear)"/>
<path d="M-100.875 175.993V70.1414H-96.0737V58.7239H-80.388V70.1414H-74.039V58.5105H-64.9157V50.4008H-49.4967V58.5105H-46.9891V70.1414H-42.1874V90.8956H-35.8384V99.0053H-32.0503V144.569H-27.5153V116.985H-25.2212V109.142H-14.8173V115.705H-12.3098V109.889H-7.98818V105.834H1.61533V116.718H6.41708V92.9231H23.4366V113.197H26.211V41.2775H30.2658V20.79H38.8556V41.2775H42.1635V144.302H45.4714V72.4355H48.5125V62.5653H60.6769V72.1688H65.2119V56.7498L67.5061 54.4556L70.4405 57.39V72.1688H73.5883V93.4566H78.9236V102.313H82.9784V93.9367H89.5408V87.8545H105.227V147.876H114.083V143.075H121.926V136.992H135.318V144.569H141.88V164.843H150.256V144.835H162.154V138.273H168.983V123.334H187.443V85.8805H191.765V81.7723H199.608V75.4233H205.423V70.6216L209.745 68.114L212.519 70.6216V65.2863L215.56 62.2452L219.348 65.553V129.363H224.15V107.862H241.383V116.452H245.171V110.369H255.308V98.205H276.863V87.6411H299.644V98.5251H305.193V87.3743L308.981 84.6L312.502 87.3743V91.6959H324.934V98.7919H327.441V144.088H332.776V57.23H337.578V50.881H335.551V40.2638L340.086 37.2227L344.407 40.2638V50.881H342.38V56.9632H348.729V46.346H362.921V56.9632H366.442V60.4845H364.681V152.625H367.989V116.665H389.01V109.836H398.4V116.398H400.695V119.706H399.201V166.603H404.002V116.238H424.277V110.423H433.88V116.505H441.723V64.8594H444.764V55.4694H448.819V48.3734L451.86 45.3323L455.008 48.4801V53.9221H459.97V64.8061H471.12V116.718V148.89H491.608V29.6466H495.129V25.9652H502.492V12.1468H506.547V4.0372L509.588 0.996094L513.269 4.67744V12.1468H516.95V25.9652H521.005V74.9431H531.409V56.9632H534.183V45.3323H546.348V56.4831H550.136V38.5031L552.91 35.7288L555.845 38.6632V55.7361H559.793V91.4291H564.595V99.0053H579.533V73.1825H595.486V60.5379H615.493V70.1414H620.828V126.322H624.35V54.9358H635.767V43.3049H647.932V54.1889V175.94C647.718 175.993 -100.875 175.727 -100.875 175.993Z" fill="#2A91AD"/>
<path d="M646.064 187.678V139.874H644.197V109.196H640.782V101.353H632.193V81.6656H626.537V68.8075H629.578V65.9265H609.144V46.6128H603.062V38.9299H605.089V26.3387L600.928 23.2976L595.753 26.4454V39.09H598.047V46.6661H592.765V33.2745H578.146V46.6661H574.465V121.467H553.764V148.197H548.322V154.759H537.865V128.776V126.482H535.197V120.56H526.234V126.375H522.446V123.334H520.685V119.653L516.79 117.359L513.269 119.119L510.228 117.359L506.973 118.746V126.589H505.319V155.079H503.185V140.3H500.411V109.036H497.156V102.206H484.939V109.142H472.561V157.587H466.905V139.927H464.611V109.036H460.556V102.366H456.875V97.6714L453.727 96.0175L449.832 97.7781V101.299H445.671V108.982H438.362V110.743H435.321V126.375H432.653V45.4923H428.385V42.0778H418.568V33.2212H413.019V27.7792L408.484 25.3783L403.949 27.6725V30.927H399.521V42.8247H394.612V92.7629H384.902V100.819H377.166V91.109L359.239 101.833H354.971V130.11H345.741V132.991H340.673V139.18H337.258V133.364H326.161V154.706H323.493V126.695H321.679V109.142H319.545V96.551L316.024 91.856V83.4262L312.769 81.7723L309.088 83.7997V91.9093L306.58 96.7111V88.388H293.829V96.6043H292.068V126.482H290.041V139.713H287.373V126.482H285.986V109.089H282.571V102.633H270.087V109.089L257.709 108.982V117.679L255.575 119.066V126.535H249.279V64.6994H246.238V53.9754H234.234V64.5926H221.749V127.656H217.588V83.6396H218.708V80.7052H214.173V71.2618H209.265V65.4463L204.196 63.1521L199.661 65.2862V71.2084H193.365V81.0253H183.655V83.693H179.12V132.778H176.346V108.982H171.437V104.714H173.305V97.7781L169.89 95.9108L166.102 97.7781V104.714H167.969V109.142H163.434V100.926H158.526V66.2466H145.401V55.0958H132.917V66.1932H130.783V75.4233H122.353V85.4003H120.219V36.2089H112.002V23.7244L106.934 18.8159L102.132 23.7244V36.3156H94.4493V39.5702H90.7679V154.759H72.5746V126.749H69.907V77.1839H66.3857V74.6763H59.0763V64.1658H54.8081V58.4037L51.5536 56.0029L48.139 58.4037V65.553H44.351V74.8898H39.1757V159.401H36.0279V128.616H36.7748V126.482H33.7337V120.72H24.2903V126.535H19.0083V120.4C19.0083 120.4 18.5815 117.412 15.2736 117.412C12.0191 117.412 11.5923 119.386 11.5923 119.386C11.5923 119.386 10.9521 117.572 7.64418 117.572C4.76313 117.572 4.49637 120.4 4.49637 120.4V126.642H2.36225V128.403H3.48267V172.952H-0.305389V128.403H0.815025V126.642H-2.06603V120.453H-11.2961V125.895H-16.9515V119.599C-16.9515 119.599 -17.5917 117.572 -20.4728 117.572C-23.0337 117.572 -23.994 119.599 -23.994 119.599C-23.994 119.599 -24.4742 117.519 -27.462 117.519C-29.7561 117.519 -30.8232 119.493 -30.8232 119.493V126.535H-32.3171V154.866H-34.9847V69.9813H-33.971V67.3136H-38.1325V57.4967H-52.6979V67.2069H-67.3166V154.866H-73.6122V110.956H-72.5985V108.982H-76.1198V101.673H-87.1105V108.982H-91.9122V104.821H-90.6317V97.7781L-93.8863 95.7507L-97.9411 98.0449V104.981H-96.6606V109.142H-100.875V187.624H645.958" fill="#014860"/>
<path opacity="0.33" d="M647.078 186.824L719.851 202.03H717.557L781.367 215.474H776.672L795.879 219.529H783.555L837.868 231.374H828.851L870.52 240.604H875.695L886.099 242.898H850.566L925.42 260.344H913.522L948.522 268.667H952.736L1019.75 284.46L1028.12 288.728L997.713 284.3L932.783 268.507H937.478L903.652 260.344H893.195L954.55 275.39H922.859L864.438 260.344H857.235L662.924 209.712H635.927L597.78 199.042H591.484L583.535 196.748H571.69L604.609 206.565L607.864 207.525H604.503L613.146 210.139H601.408L593.245 207.578H588.443L592.605 208.912H590.311L595.433 210.566L593.512 211.633L586.363 210.833L584.815 211.633L578.573 210.993L568.329 207.525H566.249L534.504 196.694H532.103L547.468 201.976H544.16L583.375 215.635H578.84L588.817 219.156H571.53L561.927 215.528H544.854L495.503 195.787H489.154L504.359 202.083H501.638L534.077 215.635H528.528L536.638 219.102H531.409L537.278 221.663L534.77 222.57L526.821 221.557L522.552 219.583H516.577L507.934 215.581H497.85L496.036 214.674H491.875L477.416 207.471H474.055L580.814 261.465H572.277L579.213 265.093H559.206L577.559 275.336H565.555L577.559 282.326L572.758 285.633L557.339 282.539L550.456 278.217H540.426L518.978 264.292H509.054L450.259 224.438H435.694L429.505 219.849H418.461L425.397 225.398L392.158 219.316H386.023L373.271 205.924H361.694L360.68 204.751H354.438L352.57 202.296H348.462L350.116 204.59H336.404L331.869 196.694H328.882L334.644 207.365H332.243L336.458 215.474H333.523L336.831 222.197L332.83 224.918L335.177 230.2L330.429 231.267L324.133 229.933L322.373 224.918L317.678 222.144L319.225 227.105H299.698L298.951 222.25H296.336L294.469 207.471H291.908L291.375 202.136H288.173L288.547 207.471H286.786L287.16 215.528H282.465V218.889H264.645L265.178 215.528L248.106 215.581L249.439 211.366L246.825 210.726L247.999 207.418H239.943L224.15 243.858H218.868L214.44 253.142H191.978L197.794 243.965H175.866L205.317 206.938H200.035L180.347 230.093H182.108L180.507 232.014H173.251L167.223 238.736H158.953L154.631 243.218L143.907 245.085L137.772 243.325L142.787 238.736H132.17L140.333 231.747H124.86L127.155 229.986H120.005L154.204 204.751H150.737L135.744 215.528H128.969L125.767 217.715H128.435L123.046 221.503L116.484 222.57L112.536 221.503L118.298 217.715H120.966L124.38 215.421H118.085L111.362 219.689H104.266L67.1326 242.524H44.351L27.3314 251.968H4.06958L22.6364 242.524H18.9017L32.72 235.588H18.795L32.9335 228.866H29.5722L-61.6611 271.708H-79.0542L-115.548 288.034L-144.305 295.397L-138.543 288.034L-99.595 271.602H-115.921L-106.584 267.814H-114.16L65.0519 196.694H44.4577L15.1136 207.365H11.7524L-63.9019 234.468H-69.6641L-74.7326 236.282H-86.8437L-110.372 244.285H-117.948L-132.46 249.14L-144.892 251.274L-144.625 249.14L-126.271 243.165H-132.887L-110.746 236.069H-119.282L11.4856 195.147H7.96432L-28.8491 206.565H-27.8888L-30.8232 207.471H-34.718L-43.041 210.032H-55.4189L-46.7757 207.471H-53.4981L-62.8349 210.139C-62.8349 210.139 -68.1168 211.473 -72.4918 211.473C-76.8667 211.473 -74.1457 210.566 -74.1457 210.566C-74.1457 210.566 -77.9871 211.42 -82.4154 211.42C-86.2568 211.42 -81.8285 210.139 -81.8285 210.139L-71.7982 207.365H-74.5192L-71.7448 206.618H-70.3043L-12.8433 190.932H-16.8447L-75.106 206.618H-73.6655L-76.4399 207.365H-80.1212L-90.2583 210.086H-102.369L-93.1393 207.685H-100.395L-111.386 210.459C-111.386 210.459 -115.868 211.366 -119.709 211.366C-123.124 211.366 -120.669 210.459 -120.669 210.459C-120.669 210.459 -125.204 211.42 -129.152 211.42C-132.194 211.42 -129.899 210.513 -129.899 210.513L-117.041 207.365H-118.962L-74.3058 196.534H-77.2935L-256.826 239.697H-255.119L-263.602 241.724H-270.804L-305.377 249.94H-332L-296.307 241.831H-321.596L-113.947 196.588H-121.096L-204.914 214.567H-203.526L-208.221 215.581H-213.077L-231.056 219.423H-246.796L-228.282 215.581H-234.898L-245.408 217.715H-243.648L-262.428 221.557L-272.885 222.677L-272.405 221.397L-253.625 217.662H-251.864L-241.247 215.528H-247.009L-102.636 186.824H647.078Z" fill="#757575"/>
</g>
<defs>
<linearGradient id="paint0_linear" x1="273.424" y1="340" x2="273.424" y2="176.632" gradientUnits="userSpaceOnUse">
<stop stop-color="#AAEDFF"/>
<stop offset="0.1201" stop-color="#9CDEF0"/>
<stop offset="0.353" stop-color="#79B5C8"/>
<stop offset="0.6754" stop-color="#407487"/>
<stop offset="1" stop-color="#002B3F"/>
</linearGradient>
</defs>
</svg>
