<svg width="1026" height="278" viewBox="0 0 1026 278" fill="none" xmlns="http://www.w3.org/2000/svg">
<path d="M408.4 169.4C395.067 169.4 384.733 164.867 377.4 155.8C370.067 146.6 366.4 132.733 366.4 114.2C366.4 96.0666 370.067 82.3999 377.4 73.1999C384.867 63.9999 394.733 59.3999 407 59.3999C414.067 59.3999 420.267 60.6666 425.6 63.1999C431.067 65.7332 435.333 69.3332 438.4 73.9999H439.6V22.3999H467V167H443.6L441.8 153.2H440.4C437.067 158.533 432.6 162.6 427 165.4C421.4 168.067 415.2 169.4 408.4 169.4ZM417.2 145.6C432.133 145.6 439.6 135.8 439.6 116.2V113C439.6 93.1332 432.133 83.1999 417.2 83.1999C409.067 83.1999 403.267 85.6666 399.8 90.5999C396.333 95.3999 394.6 102.733 394.6 112.6V116.2C394.6 126.067 396.333 133.467 399.8 138.4C403.267 143.2 409.067 145.6 417.2 145.6Z" fill="#FDE24F"/>
<path d="M526.866 169.4C509.932 169.4 497.266 164.933 488.866 156C480.599 147.067 476.466 133.2 476.466 114.4C476.466 95.5999 480.599 81.7332 488.866 72.7999C497.266 63.8666 509.932 59.3999 526.866 59.3999C542.466 59.3999 554.132 63.9332 561.866 72.9999C569.599 81.9332 573.466 95.7332 573.466 114.4V120.8H504.266C504.532 130.133 506.399 137.067 509.866 141.6C513.332 146 519.132 148.2 527.266 148.2C532.999 148.2 537.599 146.6 541.066 143.4C544.666 140.2 546.466 135.667 546.466 129.8H573.466C573.466 143 569.199 152.933 560.666 159.6C552.132 166.133 540.866 169.4 526.866 169.4ZM545.066 102.6C545.066 88.0666 538.999 80.7999 526.866 80.7999C519.932 80.7999 514.666 82.5999 511.066 86.1999C507.599 89.7999 505.466 95.2666 504.666 102.6H545.066Z" fill="#FDE24F"/>
<path d="M630.798 169.4C617.465 169.4 607.132 164.867 599.798 155.8C592.465 146.6 588.798 132.733 588.798 114.2C588.798 96.0666 592.465 82.3999 599.798 73.1999C607.265 63.9999 617.132 59.3999 629.398 59.3999C636.465 59.3999 642.665 60.6666 647.998 63.1999C653.465 65.7332 657.732 69.3332 660.798 73.9999H661.998V22.3999H689.398V167H665.998L664.198 153.2H662.798C659.465 158.533 654.998 162.6 649.398 165.4C643.798 168.067 637.598 169.4 630.798 169.4ZM639.598 145.6C654.532 145.6 661.998 135.8 661.998 116.2V113C661.998 93.1332 654.532 83.1999 639.598 83.1999C631.465 83.1999 625.665 85.6666 622.198 90.5999C618.732 95.3999 616.998 102.733 616.998 112.6V116.2C616.998 126.067 618.732 133.467 622.198 138.4C625.665 143.2 631.465 145.6 639.598 145.6Z" fill="#FDE24F"/>
<path d="M749.264 169.4C732.331 169.4 719.664 164.933 711.264 156C702.997 147.067 698.864 133.2 698.864 114.4C698.864 95.5999 702.997 81.7332 711.264 72.7999C719.664 63.8666 732.331 59.3999 749.264 59.3999C764.864 59.3999 776.531 63.9332 784.264 72.9999C791.997 81.9332 795.864 95.7332 795.864 114.4V120.8H726.664C726.931 130.133 728.797 137.067 732.264 141.6C735.731 146 741.531 148.2 749.664 148.2C755.397 148.2 759.997 146.6 763.464 143.4C767.064 140.2 768.864 135.667 768.864 129.8H795.864C795.864 143 791.597 152.933 783.064 159.6C774.531 166.133 763.264 169.4 749.264 169.4ZM767.464 102.6C767.464 88.0666 761.397 80.7999 749.264 80.7999C742.331 80.7999 737.064 82.5999 733.464 86.1999C729.997 89.7999 727.864 95.2666 727.064 102.6H767.464Z" fill="#FDE24F"/>
<path d="M853.197 169.4C839.863 169.4 829.53 164.867 822.197 155.8C814.863 146.6 811.197 132.733 811.197 114.2C811.197 96.0666 814.863 82.3999 822.197 73.1999C829.663 63.9999 839.53 59.3999 851.797 59.3999C858.863 59.3999 865.063 60.6666 870.397 63.1999C875.863 65.7332 880.13 69.3332 883.197 73.9999H884.397V22.3999H911.797V167H888.397L886.597 153.2H885.197C881.863 158.533 877.397 162.6 871.797 165.4C866.197 168.067 859.997 169.4 853.197 169.4ZM861.997 145.6C876.93 145.6 884.397 135.8 884.397 116.2V113C884.397 93.1332 876.93 83.1999 861.997 83.1999C853.863 83.1999 848.063 85.6666 844.597 90.5999C841.13 95.3999 839.397 102.733 839.397 112.6V116.2C839.397 126.067 841.13 133.467 844.597 138.4C848.063 143.2 853.863 145.6 861.997 145.6Z" fill="#FDE24F"/>
<path d="M971.662 169.4C954.729 169.4 942.062 164.933 933.662 156C925.396 147.067 921.262 133.2 921.262 114.4C921.262 95.5999 925.396 81.7332 933.662 72.7999C942.062 63.8666 954.729 59.3999 971.662 59.3999C987.262 59.3999 998.929 63.9332 1006.66 72.9999C1014.4 81.9332 1018.26 95.7332 1018.26 114.4V120.8H949.062C949.329 130.133 951.196 137.067 954.662 141.6C958.129 146 963.929 148.2 972.062 148.2C977.796 148.2 982.396 146.6 985.862 143.4C989.462 140.2 991.262 135.667 991.262 129.8H1018.26C1018.26 143 1014 152.933 1005.46 159.6C996.929 166.133 985.662 169.4 971.662 169.4ZM989.862 102.6C989.862 88.0666 983.796 80.7999 971.662 80.7999C964.729 80.7999 959.462 82.5999 955.862 86.1999C952.396 89.7999 950.262 95.2666 949.462 102.6H989.862Z" fill="#FDE24F"/>
<path d="M155.24 277.875H155.714C157.074 277.697 160.21 277.342 235.582 207.768C258.123 186.943 310.776 138.075 312.67 133.638C313.439 131.863 315.036 128.136 288.591 75.4232C284.272 66.7856 262.382 23.5976 256.998 19.5746C250.432 14.6642 149.147 14.605 144.828 14.605C59.7533 14.605 57.801 18.3322 56.4994 20.7578L54.6063 24.3075C0 127.071 0 130.444 0 132.278C0 134.052 4.51368e-06 137.366 75.0762 207.709C149.975 277.875 153.643 277.875 155.24 277.875ZM7.39521 131.686C9.1109 127.249 18.2218 107.844 60.9366 27.5614L62.3564 24.8399C67.4444 23.1834 94.3629 21.6452 144.828 21.6452C202.037 21.6452 247.059 23.5976 252.857 25.3724C260.489 33.2409 303.677 119.676 305.807 131.094C295.809 143.223 170.918 258.47 155.122 270.243C138.971 258.884 18.1035 145.648 7.39521 131.686Z" fill="#FDE24F"/>
<mask id="mask0" mask-type="alpha" maskUnits="userSpaceOnUse" x="7" y="21" width="299" height="250">
<path d="M305.807 131.035C303.677 119.617 260.489 33.1816 252.857 25.3131C247.059 23.5383 202.037 21.5859 144.828 21.5859C94.363 21.5859 67.4444 23.1833 62.3565 24.7807L60.9366 27.5021C18.2219 107.785 9.11095 127.19 7.39526 131.627C18.1627 145.589 138.971 258.824 155.181 270.183C170.977 258.41 295.809 143.163 305.807 131.035Z" fill="#FDE24F"/>
</mask>
<g mask="url(#mask0)">
<path d="M201.577 238.463L192.177 229.056C191.289 228.167 190.105 227.685 188.847 227.685H183.943C184.073 226.093 184.165 224.519 184.165 222.981C184.165 222.389 184.091 221.889 184.073 221.315L196.267 212.722C197.525 211.852 198.265 210.407 198.265 208.889V199.481C198.265 196.889 196.156 194.778 193.565 194.778C190.975 194.778 188.865 196.889 188.865 199.481V206.444L182.167 211.167C179.817 205.481 175.561 202.463 170.103 200.944C170.14 200.481 170.251 200.037 170.251 199.556C170.251 198.685 170.14 197.833 169.992 197C175.635 193.722 179.484 187.685 179.484 180.704C179.484 178.111 177.375 176 174.784 176C172.194 176 170.084 178.111 170.084 180.704C170.084 184.204 168.16 187.241 165.329 188.889C162.85 186.722 159.63 185.37 156.077 185.37C152.469 185.37 149.231 186.759 146.733 188.963C143.828 187.333 141.83 184.259 141.83 180.704C141.83 178.111 139.72 176 137.13 176C134.539 176 132.43 178.111 132.43 180.704C132.43 187.778 136.39 193.889 142.144 197.13C142.015 197.926 141.904 198.722 141.904 199.556C141.904 200.019 141.996 200.444 142.033 200.889C136.501 202.389 132.189 205.407 129.821 211.167L123.104 206.444V199.481C123.104 196.889 120.995 194.778 118.404 194.778C115.814 194.778 113.704 196.889 113.704 199.481V208.889C113.704 210.426 114.445 211.852 115.703 212.722L127.897 221.315C127.878 221.889 127.804 222.389 127.804 222.981C127.804 224.519 127.897 226.093 128.026 227.685H123.104C121.864 227.685 120.662 228.185 119.792 229.056L110.374 238.463C108.542 240.296 108.542 243.278 110.374 245.111C111.299 246.037 113.853 247.685 117.017 245.111L125.029 237.093H129.543C130.099 239.463 130.765 241.815 131.56 244.111L120.384 251.981C119.126 252.87 118.386 254.296 118.386 255.833V265.222C118.386 267.815 120.495 269.926 123.086 269.926C125.676 269.926 127.786 267.815 127.786 265.222V258.259L135.353 252.926C140.497 262.778 147.825 270 155.985 270C164.145 270 171.454 262.778 176.616 252.926L184.184 258.259V265.222C184.184 267.815 186.293 269.926 188.884 269.926C191.474 269.926 193.584 267.815 193.584 265.222V255.815C193.584 254.278 192.844 252.852 191.585 251.963L180.409 244.093C181.205 241.796 181.871 239.444 182.426 237.074H186.922L194.934 245.093C195.86 246.019 198.561 247.741 201.577 245.093C203.538 243.389 203.409 240.296 201.577 238.463Z" fill="#FF5470"/>
</g>
<path d="M93.3999 167C80.0666 167 69.7332 162.467 62.3999 153.4C55.0666 144.2 51.3999 130.333 51.3999 111.8C51.3999 93.6667 55.0666 80 62.3999 70.8C69.8666 61.6 79.7332 57 91.9999 57C99.0666 57 105.267 58.2667 110.6 60.8C116.067 63.3333 120.333 66.9333 123.4 71.6H124.6V20H152V164.6H128.6L126.8 150.8H125.4C122.067 156.133 117.6 160.2 112 163C106.4 165.667 100.2 167 93.3999 167ZM102.2 143.2C117.133 143.2 124.6 133.4 124.6 113.8V110.6C124.6 90.7333 117.133 80.8 102.2 80.8C94.0666 80.8 88.2666 83.2667 84.7999 88.2C81.3332 93 79.5999 100.333 79.5999 110.2V113.8C79.5999 123.667 81.3332 131.067 84.7999 136C88.2666 140.8 94.0666 143.2 102.2 143.2Z" fill="#FDE24F"/>
<path d="M213.866 167C196.932 167 184.266 162.533 175.866 153.6C167.599 144.667 163.466 130.8 163.466 112C163.466 93.2 167.599 79.3333 175.866 70.4C184.266 61.4667 196.932 57 213.866 57C229.466 57 241.132 61.5333 248.866 70.6C256.599 79.5333 260.466 93.3333 260.466 112V118.4H191.266C191.532 127.733 193.399 134.667 196.866 139.2C200.332 143.6 206.132 145.8 214.266 145.8C219.999 145.8 224.599 144.2 228.066 141C231.666 137.8 233.466 133.267 233.466 127.4H260.466C260.466 140.6 256.199 150.533 247.666 157.2C239.132 163.733 227.866 167 213.866 167ZM232.066 100.2C232.066 85.6667 225.999 78.4 213.866 78.4C206.932 78.4 201.666 80.2 198.066 83.8C194.599 87.4 192.466 92.8667 191.666 100.2H232.066Z" fill="#FDE24F"/>
<path d="M320.998 79.6C312.598 79.6 306.132 77.6667 301.598 73.8C297.065 69.8 294.798 64.4 294.798 57.6V56.2H311.398V57.8C311.398 60.4667 312.198 62.5333 313.798 64C315.532 65.3333 317.865 66 320.798 66C323.598 66 325.798 65.3333 327.398 64C328.998 62.5333 329.798 60.4 329.798 57.6C329.798 51.6 326.465 48.6 319.798 48.6H313.398V34.8H320.198C322.732 34.8 324.732 34.1333 326.198 32.8C327.665 31.3333 328.398 29.1333 328.398 26.2C328.398 21.1333 325.865 18.6 320.798 18.6C318.398 18.6 316.465 19.2667 314.998 20.6C313.532 21.9333 312.798 23.8 312.798 26.2V27.8H296.198V25.4C296.198 19.2667 298.465 14.3333 302.998 10.6C307.665 6.86667 313.532 5 320.598 5C328.065 5 333.998 6.8 338.398 10.4C342.932 13.8667 345.198 18.8667 345.198 25.4C345.198 29 344.265 32 342.398 34.4C340.665 36.8 337.998 38.9333 334.398 40.8V41.6C338.265 43.0667 341.265 45.2667 343.398 48.2C345.532 51 346.598 54.4667 346.598 58.6C346.598 65.1333 344.198 70.2667 339.398 74C334.732 77.7333 328.598 79.6 320.998 79.6Z" fill="#FDE24F"/>
<path d="M382.82 238.72C379.9 238.72 377.46 238.3 375.5 237.46C373.58 236.58 372.16 235.44 371.24 234.04C370.32 232.64 369.86 231.12 369.86 229.48C369.86 229 369.86 228.68 369.86 228.52C369.9 228.32 369.92 228.2 369.92 228.16H375.14V228.76C375.14 230.64 375.88 232.06 377.36 233.02C378.84 233.94 380.76 234.4 383.12 234.4C385.16 234.4 386.84 234 388.16 233.2C389.52 232.36 390.2 231.2 390.2 229.72C390.2 228.56 389.82 227.62 389.06 226.9C388.3 226.14 387.36 225.56 386.24 225.16C385.12 224.72 383.6 224.26 381.68 223.78C379.36 223.18 377.46 222.58 375.98 221.98C374.54 221.38 373.3 220.5 372.26 219.34C371.26 218.14 370.76 216.6 370.76 214.72C370.76 211.96 371.88 209.78 374.12 208.18C376.4 206.54 379.46 205.72 383.3 205.72C385.7 205.72 387.78 206.12 389.54 206.92C391.3 207.68 392.62 208.72 393.5 210.04C394.42 211.32 394.88 212.76 394.88 214.36L394.82 215.5H389.66V214.96C389.66 213.56 389.1 212.4 387.98 211.48C386.9 210.56 385.14 210.1 382.7 210.1C380.3 210.1 378.62 210.54 377.66 211.42C376.7 212.26 376.22 213.24 376.22 214.36C376.22 215.28 376.56 216.04 377.24 216.64C377.92 217.24 378.76 217.72 379.76 218.08C380.76 218.44 382.16 218.84 383.96 219.28C386.44 219.92 388.46 220.56 390.02 221.2C391.58 221.8 392.9 222.74 393.98 224.02C395.1 225.26 395.66 226.92 395.66 229C395.66 232.24 394.48 234.68 392.12 236.32C389.8 237.92 386.7 238.72 382.82 238.72Z" fill="#FDE24F"/>
<path d="M402.02 206.44H405.98L406.64 210.7H407C408.04 209.06 409.4 207.82 411.08 206.98C412.8 206.14 414.7 205.72 416.78 205.72C420.78 205.72 423.86 207.06 426.02 209.74C428.18 212.42 429.26 216.58 429.26 222.22C429.26 227.74 428.18 231.88 426.02 234.64C423.9 237.36 420.98 238.72 417.26 238.72C415.02 238.72 413.12 238.38 411.56 237.7C410 237.02 408.7 235.92 407.66 234.4H407.3V248.38H402.02V206.44ZM415.46 234.34C417.5 234.34 419.12 233.96 420.32 233.2C421.52 232.44 422.4 231.2 422.96 229.48C423.52 227.76 423.8 225.42 423.8 222.46V222.22C423.8 219.22 423.52 216.84 422.96 215.08C422.4 213.32 421.5 212.06 420.26 211.3C419.06 210.5 417.46 210.1 415.46 210.1C412.66 210.1 410.6 211.12 409.28 213.16C407.96 215.2 407.3 218.22 407.3 222.22V222.46C407.3 226.38 407.94 229.34 409.22 231.34C410.54 233.34 412.62 234.34 415.46 234.34Z" fill="#FDE24F"/>
<path d="M443.94 238.72C441.22 238.72 438.8 238.08 436.68 236.8C434.56 235.52 433.5 233.2 433.5 229.84C433.5 225.8 435.3 223.04 438.9 221.56C442.5 220.04 447.7 219.28 454.5 219.28V215.8C454.5 213.96 453.98 212.56 452.94 211.6C451.9 210.6 450.02 210.1 447.3 210.1C444.74 210.1 442.9 210.58 441.78 211.54C440.7 212.5 440.16 213.68 440.16 215.08V215.8H435.06C435.02 215.56 435 215.12 435 214.48C435 211.68 436.16 209.52 438.48 208C440.8 206.48 443.9 205.72 447.78 205.72C451.7 205.72 454.68 206.54 456.72 208.18C458.76 209.82 459.78 212.14 459.78 215.14V232.24C459.78 232.96 459.98 233.5 460.38 233.86C460.78 234.18 461.28 234.34 461.88 234.34H464.28V237.76C463.24 238.24 461.88 238.48 460.2 238.48C458.84 238.48 457.7 238.08 456.78 237.28C455.86 236.44 455.24 235.34 454.92 233.98H454.5C453.42 235.46 451.94 236.62 450.06 237.46C448.22 238.3 446.18 238.72 443.94 238.72ZM445.32 234.34C446.88 234.34 448.36 234.02 449.76 233.38C451.16 232.74 452.3 231.8 453.18 230.56C454.06 229.28 454.5 227.74 454.5 225.94V223.66C449.34 223.66 445.46 224.08 442.86 224.92C440.3 225.72 439.02 227.26 439.02 229.54C439.02 231.26 439.54 232.5 440.58 233.26C441.66 233.98 443.24 234.34 445.32 234.34Z" fill="#FDE24F"/>
<path d="M475.84 238.66C473.68 238.66 472.1 238.02 471.1 236.74C470.1 235.46 469.6 233.88 469.6 232V210.82H465.76V206.44H469.66L470.8 197.68H474.88V206.44H480.22V210.82H474.88V231.52C474.88 233.4 475.76 234.34 477.52 234.34H480.22V237.82C479.7 238.06 479.02 238.26 478.18 238.42C477.34 238.58 476.56 238.66 475.84 238.66ZM474.4 248.98H472.18V243.34H477.7V248.5L475.06 253.6H472.18L474.4 248.98Z" fill="#FDE24F"/>
<path d="M485.399 194.62H490.619V200.32H485.399V194.62ZM485.399 206.44H490.679V238H485.399V206.44Z" fill="#FDE24F"/>
<path d="M498.7 194.62H503.92V200.32H498.7V194.62ZM498.7 206.44H503.98V238H498.7V206.44Z" fill="#FDE24F"/>
<path d="M529.84 210.82H525.22V206.44H529.84V201.4C529.84 199.32 530.36 197.6 531.4 196.24C532.44 194.84 534.2 194.14 536.68 194.14C537.48 194.14 538.28 194.22 539.08 194.38C539.92 194.5 540.62 194.66 541.18 194.86V198.52H538.06C536.1 198.52 535.12 199.48 535.12 201.4V206.44H541.18V210.82H535.12V238H529.84V210.82Z" fill="#FDE24F"/>
<path d="M553.979 238.72C551.259 238.72 548.839 238.08 546.719 236.8C544.599 235.52 543.539 233.2 543.539 229.84C543.539 225.8 545.339 223.04 548.939 221.56C552.539 220.04 557.739 219.28 564.539 219.28V215.8C564.539 213.96 564.019 212.56 562.979 211.6C561.939 210.6 560.059 210.1 557.339 210.1C554.779 210.1 552.939 210.58 551.819 211.54C550.739 212.5 550.199 213.68 550.199 215.08V215.8H545.099C545.059 215.56 545.039 215.12 545.039 214.48C545.039 211.68 546.199 209.52 548.519 208C550.839 206.48 553.939 205.72 557.819 205.72C561.739 205.72 564.719 206.54 566.759 208.18C568.799 209.82 569.819 212.14 569.819 215.14V232.24C569.819 232.96 570.019 233.5 570.419 233.86C570.819 234.18 571.319 234.34 571.919 234.34H574.319V237.76C573.279 238.24 571.919 238.48 570.239 238.48C568.879 238.48 567.739 238.08 566.819 237.28C565.899 236.44 565.279 235.34 564.959 233.98H564.539C563.459 235.46 561.979 236.62 560.099 237.46C558.259 238.3 556.219 238.72 553.979 238.72ZM555.359 234.34C556.919 234.34 558.399 234.02 559.799 233.38C561.199 232.74 562.339 231.8 563.219 230.56C564.099 229.28 564.539 227.74 564.539 225.94V223.66C559.379 223.66 555.499 224.08 552.899 224.92C550.339 225.72 549.059 227.26 549.059 229.54C549.059 231.26 549.579 232.5 550.619 233.26C551.699 233.98 553.279 234.34 555.359 234.34ZM557.279 203.44C554.199 203.44 551.979 202.76 550.619 201.4C549.259 200 548.579 198.34 548.579 196.42H552.239C552.719 198.54 554.399 199.6 557.279 199.6C558.999 199.6 560.239 199.28 560.999 198.64C561.799 198 562.259 197.26 562.379 196.42H566.039C566.039 198.34 565.339 200 563.939 201.4C562.579 202.76 560.359 203.44 557.279 203.44Z" fill="#FDE24F"/>
<path d="M578.739 206.44H582.759L583.359 211.18H583.719C584.319 209.62 585.219 208.32 586.419 207.28C587.619 206.24 589.199 205.72 591.159 205.72C592.239 205.72 593.179 205.88 593.979 206.2V211.3H591.759C589.519 211.3 587.659 211.96 586.179 213.28C584.739 214.56 584.019 216.58 584.019 219.34V238H578.739V206.44Z" fill="#FDE24F"/>
<path d="M607.299 238.72C604.579 238.72 602.159 238.08 600.039 236.8C597.919 235.52 596.859 233.2 596.859 229.84C596.859 225.8 598.659 223.04 602.259 221.56C605.859 220.04 611.059 219.28 617.859 219.28V215.8C617.859 213.96 617.339 212.56 616.299 211.6C615.259 210.6 613.379 210.1 610.659 210.1C608.099 210.1 606.259 210.58 605.139 211.54C604.059 212.5 603.519 213.68 603.519 215.08V215.8H598.419C598.379 215.56 598.359 215.12 598.359 214.48C598.359 211.68 599.519 209.52 601.839 208C604.159 206.48 607.259 205.72 611.139 205.72C615.059 205.72 618.039 206.54 620.079 208.18C622.119 209.82 623.139 212.14 623.139 215.14V232.24C623.139 232.96 623.339 233.5 623.739 233.86C624.139 234.18 624.639 234.34 625.239 234.34H627.639V237.76C626.599 238.24 625.239 238.48 623.559 238.48C622.199 238.48 621.059 238.08 620.139 237.28C619.219 236.44 618.599 235.34 618.279 233.98H617.859C616.779 235.46 615.299 236.62 613.419 237.46C611.579 238.3 609.539 238.72 607.299 238.72ZM608.679 234.34C610.239 234.34 611.719 234.02 613.119 233.38C614.519 232.74 615.659 231.8 616.539 230.56C617.419 229.28 617.859 227.74 617.859 225.94V223.66C612.699 223.66 608.819 224.08 606.219 224.92C603.659 225.72 602.379 227.26 602.379 229.54C602.379 231.26 602.899 232.5 603.939 233.26C605.019 233.98 606.599 234.34 608.679 234.34ZM610.599 203.44C607.519 203.44 605.299 202.76 603.939 201.4C602.579 200 601.899 198.34 601.899 196.42H605.559C606.039 198.54 607.719 199.6 610.599 199.6C612.319 199.6 613.559 199.28 614.319 198.64C615.119 198 615.579 197.26 615.699 196.42H619.359C619.359 198.34 618.659 200 617.259 201.4C615.899 202.76 613.679 203.44 610.599 203.44Z" fill="#FDE24F"/>
<path d="M659.318 238.72C655.318 238.72 652.238 237.38 650.078 234.7C647.918 232.02 646.838 227.86 646.838 222.22C646.838 216.7 647.898 212.58 650.018 209.86C652.178 207.1 655.118 205.72 658.838 205.72C661.078 205.72 662.978 206.06 664.538 206.74C666.098 207.42 667.398 208.52 668.438 210.04H668.798V194.62H674.078V238H670.118L669.458 233.74H669.098C668.058 235.38 666.678 236.62 664.958 237.46C663.278 238.3 661.398 238.72 659.318 238.72ZM660.638 234.34C663.478 234.34 665.538 233.34 666.818 231.34C668.138 229.34 668.798 226.38 668.798 222.46V222.22C668.798 218.22 668.138 215.2 666.818 213.16C665.498 211.12 663.438 210.1 660.638 210.1C658.638 210.1 657.018 210.5 655.778 211.3C654.578 212.06 653.698 213.32 653.138 215.08C652.578 216.84 652.298 219.22 652.298 222.22V222.46C652.298 225.42 652.578 227.76 653.138 229.48C653.698 231.2 654.578 232.44 655.778 233.2C656.978 233.96 658.598 234.34 660.638 234.34Z" fill="#FDE24F"/>
<path d="M690.678 238.72C687.958 238.72 685.538 238.08 683.418 236.8C681.298 235.52 680.238 233.2 680.238 229.84C680.238 225.8 682.038 223.04 685.638 221.56C689.238 220.04 694.438 219.28 701.238 219.28V215.8C701.238 213.96 700.718 212.56 699.678 211.6C698.638 210.6 696.758 210.1 694.038 210.1C691.478 210.1 689.638 210.58 688.518 211.54C687.438 212.5 686.898 213.68 686.898 215.08V215.8H681.798C681.758 215.56 681.738 215.12 681.738 214.48C681.738 211.68 682.898 209.52 685.218 208C687.538 206.48 690.638 205.72 694.518 205.72C698.438 205.72 701.418 206.54 703.458 208.18C705.498 209.82 706.518 212.14 706.518 215.14V232.24C706.518 232.96 706.718 233.5 707.118 233.86C707.518 234.18 708.018 234.34 708.618 234.34H711.018V237.76C709.978 238.24 708.618 238.48 706.938 238.48C705.578 238.48 704.438 238.08 703.518 237.28C702.598 236.44 701.978 235.34 701.658 233.98H701.238C700.158 235.46 698.678 236.62 696.798 237.46C694.958 238.3 692.918 238.72 690.678 238.72ZM692.058 234.34C693.618 234.34 695.098 234.02 696.498 233.38C697.898 232.74 699.038 231.8 699.918 230.56C700.798 229.28 701.238 227.74 701.238 225.94V223.66C696.078 223.66 692.198 224.08 689.598 224.92C687.038 225.72 685.758 227.26 685.758 229.54C685.758 231.26 686.278 232.5 687.318 233.26C688.398 233.98 689.978 234.34 692.058 234.34ZM693.978 203.44C690.898 203.44 688.678 202.76 687.318 201.4C685.958 200 685.278 198.34 685.278 196.42H688.938C689.418 198.54 691.098 199.6 693.978 199.6C695.698 199.6 696.938 199.28 697.698 198.64C698.498 198 698.958 197.26 699.078 196.42H702.738C702.738 198.34 702.038 200 700.638 201.4C699.278 202.76 697.058 203.44 693.978 203.44Z" fill="#FDE24F"/>
<path d="M725.098 238.72C721.938 238.72 719.498 237.88 717.778 236.2C716.098 234.48 715.258 231.74 715.258 227.98V206.44H720.538V227.62C720.538 230.14 721.098 231.9 722.218 232.9C723.338 233.86 724.958 234.34 727.078 234.34C728.598 234.34 729.998 233.98 731.278 233.26C732.558 232.5 733.578 231.42 734.338 230.02C735.098 228.62 735.478 226.98 735.478 225.1V206.44H740.758V238H736.738L736.138 233.74H735.718C733.398 237.06 729.858 238.72 725.098 238.72Z" fill="#FDE24F"/>
<path d="M748.778 206.44H752.798L753.398 210.7H753.818C756.138 207.38 759.678 205.72 764.438 205.72C767.598 205.72 770.018 206.58 771.698 208.3C773.418 209.98 774.278 212.7 774.278 216.46V238H768.998V216.82C768.998 214.3 768.438 212.56 767.318 211.6C766.198 210.6 764.578 210.1 762.458 210.1C760.938 210.1 759.538 210.48 758.258 211.24C756.978 211.96 755.958 213.02 755.198 214.42C754.438 215.82 754.058 217.46 754.058 219.34V238H748.778V206.44Z" fill="#FDE24F"/>
<path d="M790.698 238.72C787.978 238.72 785.558 238.08 783.438 236.8C781.318 235.52 780.258 233.2 780.258 229.84C780.258 225.8 782.058 223.04 785.658 221.56C789.258 220.04 794.458 219.28 801.258 219.28V215.8C801.258 213.96 800.738 212.56 799.698 211.6C798.658 210.6 796.778 210.1 794.058 210.1C791.498 210.1 789.658 210.58 788.538 211.54C787.458 212.5 786.918 213.68 786.918 215.08V215.8H781.818C781.778 215.56 781.758 215.12 781.758 214.48C781.758 211.68 782.918 209.52 785.238 208C787.558 206.48 790.658 205.72 794.538 205.72C798.458 205.72 801.438 206.54 803.478 208.18C805.518 209.82 806.538 212.14 806.538 215.14V232.24C806.538 232.96 806.738 233.5 807.138 233.86C807.538 234.18 808.038 234.34 808.638 234.34H811.038V237.76C809.998 238.24 808.638 238.48 806.958 238.48C805.598 238.48 804.458 238.08 803.538 237.28C802.618 236.44 801.998 235.34 801.678 233.98H801.258C800.178 235.46 798.698 236.62 796.818 237.46C794.978 238.3 792.938 238.72 790.698 238.72ZM792.078 234.34C793.638 234.34 795.118 234.02 796.518 233.38C797.918 232.74 799.058 231.8 799.938 230.56C800.818 229.28 801.258 227.74 801.258 225.94V223.66C796.098 223.66 792.218 224.08 789.618 224.92C787.058 225.72 785.778 227.26 785.778 229.54C785.778 231.26 786.298 232.5 787.338 233.26C788.418 233.98 789.998 234.34 792.078 234.34ZM793.998 203.44C790.918 203.44 788.698 202.76 787.338 201.4C785.978 200 785.298 198.34 785.298 196.42H788.958C789.438 198.54 791.118 199.6 793.998 199.6C795.718 199.6 796.958 199.28 797.718 198.64C798.518 198 798.978 197.26 799.098 196.42H802.758C802.758 198.34 802.058 200 800.658 201.4C799.298 202.76 797.078 203.44 793.998 203.44Z" fill="#FDE24F"/>
<path d="M822.597 238.66C820.437 238.66 818.857 238.02 817.857 236.74C816.857 235.46 816.357 233.88 816.357 232V210.82H812.517V206.44H816.417L817.557 197.68H821.637V206.44H826.977V210.82H821.637V231.52C821.637 233.4 822.517 234.34 824.277 234.34H826.977V237.82C826.457 238.06 825.777 238.26 824.937 238.42C824.097 238.58 823.317 238.66 822.597 238.66Z" fill="#FDE24F"/>
<path d="M844.817 238.72C839.977 238.72 836.337 237.38 833.897 234.7C831.457 231.98 830.237 227.82 830.237 222.22C830.237 216.62 831.457 212.48 833.897 209.8C836.337 207.08 839.977 205.72 844.817 205.72C849.657 205.72 853.297 207.08 855.737 209.8C858.177 212.48 859.397 216.62 859.397 222.22C859.397 227.82 858.177 231.98 855.737 234.7C853.297 237.38 849.657 238.72 844.817 238.72ZM844.817 234.34C848.017 234.34 850.337 233.42 851.777 231.58C853.217 229.7 853.937 226.66 853.937 222.46V221.98C853.937 217.78 853.217 214.76 851.777 212.92C850.337 211.04 848.017 210.1 844.817 210.1C841.617 210.1 839.297 211.04 837.857 212.92C836.417 214.76 835.697 217.78 835.697 221.98V222.46C835.697 226.66 836.417 229.7 837.857 231.58C839.297 233.42 841.617 234.34 844.817 234.34Z" fill="#FDE24F"/>
<path d="M865.496 206.44H869.516L870.116 211.18H870.476C871.076 209.62 871.976 208.32 873.176 207.28C874.376 206.24 875.956 205.72 877.916 205.72C878.996 205.72 879.936 205.88 880.736 206.2V211.3H878.516C876.276 211.3 874.416 211.96 872.936 213.28C871.496 214.56 870.776 216.58 870.776 219.34V238H865.496V206.44Z" fill="#FDE24F"/>
<path d="M885.477 194.62H890.697V200.32H885.477V194.62ZM885.477 206.44H890.757V238H885.477V206.44Z" fill="#FDE24F"/>
<path d="M578 115H584V121H578V115Z" fill="#FF5470"/>
<path d="M801 115H807V121H801V115Z" fill="#FF5470"/>
</svg>
